LibreBaskerville-Bold.ufo
<glyph name="exclam" format="1">
  <advance width="311"/>
  <unicode hex="0021"/>
  <outline>
    <contour>
      <point x="185" y="207" type="line"/>
      <point x="185" y="329"/>
      <point x="195" y="408"/>
      <point x="205" y="472" type="curve" smooth="yes"/>
      <point x="218" y="553"/>
      <point x="233" y="608"/>
      <point x="233" y="690" type="curve" smooth="yes"/>
      <point x="233" y="750"/>
      <point x="207" y="780"/>
      <point x="155" y="780" type="curve" smooth="yes"/>
      <point x="103" y="780"/>
      <point x="77" y="750"/>
      <point x="77" y="690" type="curve" smooth="yes"/>
      <point x="77" y="608"/>
      <point x="92" y="553"/>
      <point x="105" y="472" type="curve" smooth="yes"/>
      <point x="115" y="408"/>
      <point x="125" y="328"/>
      <point x="125" y="207" type="curve"/>
    </contour>
    <contour>
      <point x="80" y="65" type="curve" smooth="yes"/>
      <point x="80" y="22"/>
      <point x="113" y="-10"/>
      <point x="156" y="-10" type="curve" smooth="yes"/>
      <point x="199" y="-10"/>
      <point x="232" y="23"/>
      <point x="232" y="65" type="curve" smooth="yes"/>
      <point x="232" y="107"/>
      <point x="198" y="141"/>
      <point x="156" y="141" type="curve" smooth="yes"/>
      <point x="113" y="141"/>
      <point x="80" y="107"/>
    </contour>
  </outline>
</glyph>
<glyph name="quotedbl" format="1">
  <advance width="392"/>
  <unicode hex="0022"/>
  <outline>
    <contour>
      <point x="127" y="554" type="line"/>
      <point x="139" y="626"/>
      <point x="165" y="739"/>
      <point x="165" y="770" type="curve" smooth="yes"/>
      <point x="165" y="805"/>
      <point x="140" y="830"/>
      <point x="106" y="830" type="curve" smooth="yes"/>
      <point x="73" y="830"/>
      <point x="48" y="805"/>
      <point x="48" y="771" type="curve" smooth="yes"/>
      <point x="48" y="740"/>
      <point x="74" y="626"/>
      <point x="86" y="554" type="curve"/>
    </contour>
    <contour>
      <point x="307" y="554" type="line"/>
      <point x="318" y="626"/>
      <point x="344" y="739"/>
      <point x="344" y="770" type="curve" smooth="yes"/>
      <point x="344" y="805"/>
      <point x="319" y="830"/>
      <point x="286" y="830" type="curve" smooth="yes"/>
      <point x="252" y="830"/>
      <point x="227" y="805"/>
      <point x="227" y="771" type="curve" smooth="yes"/>
      <point x="227" y="740"/>
      <point x="254" y="626"/>
      <point x="266" y="554" type="curve"/>
    </contour>
  </outline>
</glyph>
<glyph name="dollar" format="1">
  <advance width="644"/>
  <unicode hex="0024"/>
  <outline>
    <contour>
      <point x="285" y="900" type="line"/>
      <point x="285" y="779" type="line"/>
      <point x="174" y="779"/>
      <point x="64" y="697"/>
      <point x="64" y="562" type="curve" smooth="yes"/>
      <point x="64" y="461"/>
      <point x="133" y="389"/>
      <point x="285" y="328" type="curve"/>
      <point x="285" y="52" type="line"/>
      <point x="224" y="57"/>
      <point x="189" y="88"/>
      <point x="174" y="146" type="curve" smooth="yes"/>
      <point x="154" y="225"/>
      <point x="133" y="250"/>
      <point x="96" y="250" type="curve" smooth="yes"/>
      <point x="59" y="250"/>
      <point x="37" y="224"/>
      <point x="37" y="178" type="curve" smooth="yes"/>
      <point x="37" y="79"/>
      <point x="143" y="-1"/>
      <point x="285" y="-9" type="curve"/>
      <point x="285" y="-170" type="line"/>
      <point x="353" y="-170" type="line"/>
      <point x="353" y="-8" type="line"/>
      <point x="509" y="5"/>
      <point x="607" y="94"/>
      <point x="607" y="220" type="curve" smooth="yes"/>
      <point x="607" y="327"/>
      <point x="533" y="401"/>
      <point x="353" y="473" type="curve"/>
      <point x="353" y="717" type="line"/>
      <point x="460" y="717"/>
      <point x="423" y="552"/>
      <point x="518" y="552" type="curve" smooth="yes"/>
      <point x="553" y="552"/>
      <point x="576" y="575"/>
      <point x="576" y="610" type="curve" smooth="yes"/>
      <point x="576" y="698"/>
      <point x="468" y="777"/>
      <point x="353" y="777" type="curve"/>
      <point x="353" y="900" type="line"/>
    </contour>
    <contour>
      <point x="480" y="168" type="curve" smooth="yes"/>
      <point x="480" y="106"/>
      <point x="434" y="64"/>
      <point x="353" y="54" type="curve"/>
      <point x="353" y="301" type="line"/>
      <point x="445" y="261"/>
      <point x="480" y="224"/>
    </contour>
    <contour>
      <point x="177" y="616" type="curve" smooth="yes"/>
      <point x="177" y="670"/>
      <point x="227" y="716"/>
      <point x="285" y="716" type="curve"/>
      <point x="285" y="501" type="line"/>
      <point x="212" y="534"/>
      <point x="177" y="571"/>
    </contour>
  </outline>
</glyph>
<glyph name="quotesingle" format="1">
  <advance width="213"/>
  <unicode hex="0027"/>
  <outline>
    <contour>
      <point x="127" y="554" type="line"/>
      <point x="139" y="626"/>
      <point x="165" y="739"/>
      <point x="165" y="770" type="curve" smooth="yes"/>
      <point x="165" y="805"/>
      <point x="140" y="830"/>
      <point x="106" y="830" type="curve" smooth="yes"/>
      <point x="73" y="830"/>
      <point x="48" y="805"/>
      <point x="48" y="771" type="curve" smooth="yes"/>
      <point x="48" y="740"/>
      <point x="74" y="626"/>
      <point x="86" y="554" type="curve"/>
    </contour>
  </outline>
</glyph>
<glyph name="parenleft" format="1">
  <advance width="343"/>
  <unicode hex="0028"/>
  <outline>
    <contour>
      <point x="291" y="831" type="line"/>
      <point x="122" y="677"/>
      <point x="35" y="503"/>
      <point x="35" y="323" type="curve" smooth="yes"/>
      <point x="35" y="138"/>
      <point x="126" y="-40"/>
      <point x="299" y="-194" type="curve"/>
      <point x="332" y="-161" type="line"/>
      <point x="217" y="-24"/>
      <point x="170" y="169"/>
      <point x="170" y="342" type="curve" smooth="yes"/>
      <point x="170" y="480"/>
      <point x="205" y="630"/>
      <point x="323" y="803" type="curve"/>
    </contour>
  </outline>
</glyph>
<glyph name="parenright" format="1">
  <advance width="343"/>
  <unicode hex="0029"/>
  <outline>
    <contour>
      <point x="20" y="803" type="line"/>
      <point x="138" y="630"/>
      <point x="173" y="480"/>
      <point x="173" y="342" type="curve" smooth="yes"/>
      <point x="173" y="169"/>
      <point x="126" y="-24"/>
      <point x="11" y="-161" type="curve"/>
      <point x="44" y="-194" type="line"/>
      <point x="217" y="-40"/>
      <point x="308" y="138"/>
      <point x="308" y="323" type="curve" smooth="yes"/>
      <point x="308" y="503"/>
      <point x="221" y="677"/>
      <point x="52" y="831" type="curve"/>
    </contour>
  </outline>
</glyph>
<glyph name="asterisk" format="1">
  <advance width="492"/>
  <unicode hex="002A"/>
  <outline>
    <contour>
      <point x="267" y="528" type="curve"/>
      <point x="269" y="434"/>
      <point x="297" y="452"/>
      <point x="297" y="405" type="curve" smooth="yes"/>
      <point x="297" y="371"/>
      <point x="275" y="349"/>
      <point x="246" y="349" type="curve" smooth="yes"/>
      <point x="216" y="349"/>
      <point x="193" y="372"/>
      <point x="193" y="406" type="curve" smooth="yes"/>
      <point x="193" y="444"/>
      <point x="224" y="452"/>
      <point x="225" y="527" type="curve"/>
      <point x="162" y="497"/>
      <point x="155" y="430"/>
      <point x="101" y="430" type="curve" smooth="yes"/>
      <point x="76" y="430"/>
      <point x="52" y="452"/>
      <point x="52" y="481" type="curve" smooth="yes"/>
      <point x="52" y="500"/>
      <point x="62" y="519"/>
      <point x="83" y="531" type="curve" smooth="yes"/>
      <point x="116" y="550"/>
      <point x="139" y="526"/>
      <point x="203" y="564" type="curve"/>
      <point x="170" y="580"/>
      <point x="145" y="589"/>
      <point x="115" y="589" type="curve" smooth="yes"/>
      <point x="83" y="589"/>
      <point x="52" y="617"/>
      <point x="52" y="646" type="curve" smooth="yes"/>
      <point x="52" y="676"/>
      <point x="77" y="698"/>
      <point x="103" y="698" type="curve" smooth="yes"/>
      <point x="165" y="698"/>
      <point x="148" y="644"/>
      <point x="224" y="601" type="curve"/>
      <point x="221" y="693"/>
      <point x="193" y="677"/>
      <point x="193" y="722" type="curve" smooth="yes"/>
      <point x="193" y="757"/>
      <point x="215" y="780"/>
      <point x="245" y="780" type="curve" smooth="yes"/>
      <point x="275" y="780"/>
      <point x="298" y="757"/>
      <point x="298" y="722" type="curve" smooth="yes"/>
      <point x="298" y="684"/>
      <point x="266" y="676"/>
      <point x="266" y="601" type="curve"/>
      <point x="342" y="644"/>
      <point x="324" y="698"/>
      <point x="387" y="698" type="curve" smooth="yes"/>
      <point x="412" y="698"/>
      <point x="438" y="676"/>
      <point x="438" y="646" type="curve" smooth="yes"/>
      <point x="438" y="617"/>
      <point x="406" y="589"/>
      <point x="375" y="589" type="curve" smooth="yes"/>
      <point x="343" y="589"/>
      <point x="321" y="582"/>
      <point x="287" y="564" type="curve"/>
      <point x="351" y="526"/>
      <point x="374" y="550"/>
      <point x="407" y="531" type="curve" smooth="yes"/>
      <point x="427" y="519"/>
      <point x="438" y="500"/>
      <point x="438" y="481" type="curve" smooth="yes"/>
      <point x="438" y="452"/>
      <point x="414" y="430"/>
      <point x="389" y="430" type="curve" smooth="yes"/>
      <point x="328" y="430"/>
      <point x="331" y="501"/>
    </contour>
  </outline>
</glyph>
<glyph name="plus" format="1">
  <advance width="560"/>
  <unicode hex="002B"/>
  <outline>
    <contour>
      <point x="314" y="86" type="line"/>
      <point x="314" y="307" type="line"/>
      <point x="526" y="307" type="line"/>
      <point x="526" y="369" type="line"/>
      <point x="314" y="369" type="line"/>
      <point x="314" y="590" type="line"/>
      <point x="246" y="590" type="line"/>
      <point x="246" y="369" type="line"/>
      <point x="34" y="369" type="line"/>
      <point x="34" y="307" type="line"/>
      <point x="246" y="307" type="line"/>
      <point x="246" y="86" type="line"/>
    </contour>
  </outline>
</glyph>
<glyph name="comma" format="1">
  <advance width="262"/>
  <unicode hex="002C"/>
  <outline>
    <contour>
      <point x="59" y="-155" type="line"/>
      <point x="159" y="-89"/>
      <point x="206" y="-24"/>
      <point x="206" y="48" type="curve" smooth="yes"/>
      <point x="206" y="105"/>
      <point x="176" y="141"/>
      <point x="129" y="141" type="curve" smooth="yes"/>
      <point x="87" y="141"/>
      <point x="54" y="108"/>
      <point x="54" y="64" type="curve" smooth="yes"/>
      <point x="54" y="29"/>
      <point x="77" y="0"/>
      <point x="105" y="0" type="curve" smooth="yes"/>
      <point x="115" y="0"/>
      <point x="128" y="4"/>
      <point x="135" y="8" type="curve"/>
      <point x="135" y="-28"/>
      <point x="102" y="-65"/>
      <point x="30" y="-113" type="curve"/>
    </contour>
  </outline>
</glyph>
<glyph name="hyphen" format="1">
  <advance width="457"/>
  <unicode hex="002D"/>
  <outline>
    <contour>
      <point x="391" y="243" type="line"/>
      <point x="391" y="336" type="line"/>
      <point x="66" y="336" type="line"/>
      <point x="66" y="243" type="line"/>
    </contour>
  </outline>
</glyph>
<glyph name="zero" format="1">
  <advance width="755"/>
  <unicode hex="0030"/>
  <outline>
    <contour>
      <point x="375" y="780" type="curve" smooth="yes"/>
      <point x="195" y="780"/>
      <point x="47" y="605"/>
      <point x="47" y="379" type="curve" smooth="yes"/>
      <point x="47" y="162"/>
      <point x="195" y="-10"/>
      <point x="375" y="-10" type="curve" smooth="yes"/>
      <point x="558" y="-10"/>
      <point x="708" y="162"/>
      <point x="708" y="379" type="curve" smooth="yes"/>
      <point x="708" y="605"/>
      <point x="558" y="780"/>
    </contour>
    <contour>
      <point x="375" y="48" type="curve" smooth="yes"/>
      <point x="279" y="48"/>
      <point x="221" y="123"/>
      <point x="221" y="376" type="curve" smooth="yes"/>
      <point x="221" y="640"/>
      <point x="279" y="722"/>
      <point x="375" y="722" type="curve" smooth="yes"/>
      <point x="471" y="722"/>
      <point x="529" y="640"/>
      <point x="529" y="376" type="curve" smooth="yes"/>
      <point x="529" y="123"/>
      <point x="471" y="48"/>
    </contour>
  </outline>
</glyph>
<glyph name="one" format="1">
  <advance width="436"/>
  <unicode hex="0031"/>
  <outline>
    <contour>
      <point x="302" y="780" type="line"/>
      <point x="230" y="757"/>
      <point x="101" y="741"/>
      <point x="30" y="738" type="curve"/>
      <point x="30" y="698" type="line"/>
      <point x="106" y="698"/>
      <point x="142" y="695"/>
      <point x="150" y="666" type="curve" smooth="yes"/>
      <point x="155" y="650"/>
      <point x="155" y="597"/>
      <point x="155" y="520" type="curve" smooth="yes"/>
      <point x="155" y="157" type="line" smooth="yes"/>
      <point x="155" y="63"/>
      <point x="138" y="44"/>
      <point x="35" y="40" type="curve"/>
      <point x="35" y="0" type="line"/>
      <point x="411" y="0" type="line"/>
      <point x="411" y="40" type="line"/>
      <point x="316" y="43"/>
      <point x="302" y="61"/>
      <point x="302" y="164" type="curve" smooth="yes"/>
    </contour>
  </outline>
</glyph>
<glyph name="three" format="1">
  <advance width="637"/>
  <unicode hex="0033"/>
  <outline>
    <contour>
      <point x="429" y="216" type="curve" smooth="yes"/>
      <point x="429" y="318"/>
      <point x="386" y="378"/>
      <point x="315" y="378" type="curve"/>
      <point x="289" y="367"/>
      <point x="262" y="360"/>
      <point x="245" y="360" type="curve" smooth="yes"/>
      <point x="208" y="360"/>
      <point x="186" y="376"/>
      <point x="186" y="404" type="curve" smooth="yes"/>
      <point x="186" y="428"/>
      <point x="207" y="442"/>
      <point x="243" y="442" type="curve" smooth="yes"/>
      <point x="261" y="442"/>
      <point x="287" y="436"/>
      <point x="306" y="431" type="curve"/>
      <point x="369" y="431"/>
      <point x="411" y="481"/>
      <point x="411" y="581" type="curve" smooth="yes"/>
      <point x="411" y="677"/>
      <point x="370" y="727"/>
      <point x="305" y="727" type="curve" smooth="yes"/>
      <point x="244" y="727"/>
      <point x="208" y="696"/>
      <point x="208" y="644" type="curve" smooth="yes"/>
      <point x="208" y="608"/>
      <point x="231" y="581"/>
      <point x="263" y="581" type="curve"/>
      <point x="255" y="545"/>
      <point x="227" y="523"/>
      <point x="186" y="523" type="curve" smooth="yes"/>
      <point x="121" y="523"/>
      <point x="68" y="575"/>
      <point x="68" y="638" type="curve" smooth="yes"/>
      <point x="68" y="723"/>
      <point x="163" y="780"/>
      <point x="306" y="780" type="curve" smooth="yes"/>
      <point x="463" y="780"/>
      <point x="564" y="710"/>
      <point x="564" y="602" type="curve" smooth="yes"/>
      <point x="564" y="516"/>
      <point x="504" y="439"/>
      <point x="420" y="417" type="curve"/>
      <point x="420" y="411" type="line"/>
      <point x="522" y="383"/>
      <point x="589" y="302"/>
      <point x="589" y="207" type="curve" smooth="yes"/>
      <point x="589" y="81"/>
      <point x="468" y="-10"/>
      <point x="301" y="-10" type="curve" smooth="yes"/>
      <point x="149" y="-10"/>
      <point x="37" y="65"/>
      <point x="37" y="168" type="curve" smooth="yes"/>
      <point x="37" y="242"/>
      <point x="97" y="304"/>
      <point x="169" y="304" type="curve" smooth="yes"/>
      <point x="213" y="304"/>
      <point x="246" y="279"/>
      <point x="254" y="240" type="curve"/>
      <point x="214" y="240"/>
      <point x="184" y="203"/>
      <point x="184" y="155" type="curve" smooth="yes"/>
      <point x="184" y="90"/>
      <point x="230" y="47"/>
      <point x="300" y="47" type="curve" smooth="yes"/>
      <point x="375" y="47"/>
      <point x="429" y="114"/>
    </contour>
  </outline>
</glyph>
<glyph name="five" format="1">
  <advance width="595"/>
  <unicode hex="0035"/>
  <outline>
    <contour>
      <point x="249" y="651" type="line"/>
      <point x="346" y="651" type="line" smooth="yes"/>
      <point x="444" y="651"/>
      <point x="511" y="698"/>
      <point x="530" y="780" type="curve"/>
      <point x="524" y="781" type="line"/>
      <point x="494" y="769"/>
      <point x="438" y="762"/>
      <point x="364" y="762" type="curve" smooth="yes"/>
      <point x="302" y="762"/>
      <point x="258" y="768"/>
      <point x="221" y="780" type="curve"/>
      <point x="109" y="367" type="line" smooth="yes"/>
      <point x="108" y="363"/>
      <point x="107" y="359"/>
      <point x="107" y="355" type="curve" smooth="yes"/>
      <point x="107" y="339"/>
      <point x="118" y="329"/>
      <point x="135" y="329" type="curve" smooth="yes"/>
      <point x="153" y="329"/>
      <point x="165" y="336"/>
      <point x="176" y="367" type="curve" smooth="yes"/>
      <point x="199" y="429"/>
      <point x="236" y="457"/>
      <point x="294" y="457" type="curve" smooth="yes"/>
      <point x="364" y="457"/>
      <point x="391" y="407"/>
      <point x="391" y="297" type="curve" smooth="yes"/>
      <point x="391" y="144"/>
      <point x="330" y="44"/>
      <point x="227" y="44" type="curve" smooth="yes"/>
      <point x="95" y="44"/>
      <point x="157" y="195"/>
      <point x="70" y="195" type="curve" smooth="yes"/>
      <point x="32" y="195"/>
      <point x="10" y="170"/>
      <point x="10" y="128" type="curve" smooth="yes"/>
      <point x="10" y="48"/>
      <point x="99" y="-10"/>
      <point x="224" y="-10" type="curve" smooth="yes"/>
      <point x="408" y="-10"/>
      <point x="551" y="115"/>
      <point x="551" y="274" type="curve" smooth="yes"/>
      <point x="551" y="411"/>
      <point x="449" y="515"/>
      <point x="314" y="515" type="curve" smooth="yes"/>
      <point x="271" y="515"/>
      <point x="226" y="498"/>
      <point x="204" y="474" type="curve"/>
      <point x="202" y="477" type="line"/>
    </contour>
  </outline>
</glyph>
<glyph name="six" format="1">
  <advance width="674"/>
  <unicode hex="0036"/>
  <outline>
    <contour>
      <point x="629" y="259" type="curve" smooth="yes"/>
      <point x="629" y="404"/>
      <point x="517" y="513"/>
      <point x="370" y="513" type="curve" smooth="yes"/>
      <point x="306" y="513"/>
      <point x="261" y="491"/>
      <point x="219" y="443" type="curve"/>
      <point x="216" y="445" type="line"/>
      <point x="216" y="604"/>
      <point x="283" y="725"/>
      <point x="370" y="725" type="curve" smooth="yes"/>
      <point x="477" y="725"/>
      <point x="444" y="606"/>
      <point x="526" y="606" type="curve" smooth="yes"/>
      <point x="566" y="606"/>
      <point x="592" y="630"/>
      <point x="592" y="668" type="curve" smooth="yes"/>
      <point x="592" y="731"/>
      <point x="508" y="780"/>
      <point x="401" y="780" type="curve" smooth="yes"/>
      <point x="207" y="780"/>
      <point x="48" y="580"/>
      <point x="48" y="337" type="curve" smooth="yes"/>
      <point x="48" y="133"/>
      <point x="168" y="-10"/>
      <point x="341" y="-10" type="curve" smooth="yes"/>
      <point x="500" y="-10"/>
      <point x="629" y="109"/>
    </contour>
    <contour>
      <point x="214" y="337" type="line"/>
      <point x="256" y="418"/>
      <point x="298" y="454"/>
      <point x="356" y="454" type="curve" smooth="yes"/>
      <point x="429" y="454"/>
      <point x="468" y="385"/>
      <point x="468" y="255" type="curve" smooth="yes"/>
      <point x="468" y="112"/>
      <point x="429" y="45"/>
      <point x="345" y="45" type="curve" smooth="yes"/>
      <point x="260" y="45"/>
      <point x="214" y="126"/>
      <point x="214" y="283" type="curve" smooth="yes"/>
    </contour>
  </outline>
</glyph>
<glyph name="seven" format="1">
  <advance width="516"/>
  <unicode hex="0037"/>
  <outline>
    <contour>
      <point x="418" y="651" type="line"/>
      <point x="352" y="521"/>
      <point x="327" y="475"/>
      <point x="207" y="277" type="curve" smooth="yes"/>
      <point x="110" y="117"/>
      <point x="97" y="89"/>
      <point x="97" y="53" type="curve" smooth="yes"/>
      <point x="97" y="13"/>
      <point x="121" y="-10"/>
      <point x="161" y="-10" type="curve" smooth="yes"/>
      <point x="207" y="-10"/>
      <point x="237" y="20"/>
      <point x="264" y="97" type="curve" smooth="yes"/>
      <point x="362" y="384"/>
      <point x="376" y="418"/>
      <point x="528" y="730" type="curve"/>
      <point x="528" y="770" type="line"/>
      <point x="210" y="770" type="line" smooth="yes"/>
      <point x="149" y="770"/>
      <point x="130" y="777"/>
      <point x="130" y="801" type="curve" smooth="yes"/>
      <point x="130" y="809"/>
      <point x="132" y="818"/>
      <point x="135" y="830" type="curve"/>
      <point x="93" y="830" type="line"/>
      <point x="19" y="550" type="line"/>
      <point x="59" y="550" type="line"/>
      <point x="76" y="589" type="line" smooth="yes"/>
      <point x="99" y="643"/>
      <point x="118" y="651"/>
      <point x="228" y="651" type="curve" smooth="yes"/>
    </contour>
  </outline>
</glyph>
<glyph name="nine" format="1">
  <advance width="674"/>
  <unicode hex="0039"/>
  <outline>
    <contour>
      <point x="45" y="511" type="curve" smooth="yes"/>
      <point x="45" y="366"/>
      <point x="157" y="257"/>
      <point x="304" y="257" type="curve" smooth="yes"/>
      <point x="370" y="257"/>
      <point x="417" y="279"/>
      <point x="460" y="327" type="curve"/>
      <point x="463" y="325" type="line"/>
      <point x="463" y="166"/>
      <point x="394" y="45"/>
      <point x="304" y="45" type="curve" smooth="yes"/>
      <point x="197" y="45"/>
      <point x="230" y="164"/>
      <point x="148" y="164" type="curve" smooth="yes"/>
      <point x="108" y="164"/>
      <point x="82" y="140"/>
      <point x="82" y="102" type="curve" smooth="yes"/>
      <point x="82" y="39"/>
      <point x="166" y="-10"/>
      <point x="273" y="-10" type="curve" smooth="yes"/>
      <point x="467" y="-10"/>
      <point x="626" y="190"/>
      <point x="626" y="433" type="curve" smooth="yes"/>
      <point x="626" y="637"/>
      <point x="506" y="780"/>
      <point x="333" y="780" type="curve" smooth="yes"/>
      <point x="174" y="780"/>
      <point x="45" y="661"/>
    </contour>
    <contour>
      <point x="460" y="433" type="line"/>
      <point x="418" y="352"/>
      <point x="376" y="316"/>
      <point x="318" y="316" type="curve" smooth="yes"/>
      <point x="245" y="316"/>
      <point x="206" y="385"/>
      <point x="206" y="515" type="curve" smooth="yes"/>
      <point x="206" y="658"/>
      <point x="245" y="725"/>
      <point x="329" y="725" type="curve" smooth="yes"/>
      <point x="414" y="725"/>
      <point x="460" y="643"/>
      <point x="460" y="482" type="curve" smooth="yes"/>
    </contour>
  </outline>
</glyph>
<glyph name="colon" format="1">
  <advance width="284"/>
  <unicode hex="003A"/>
  <outline>
    <contour>
      <point x="66" y="64" type="curve" smooth="yes"/>
      <point x="66" y="23"/>
      <point x="99" y="-10"/>
      <point x="141" y="-10" type="curve" smooth="yes"/>
      <point x="185" y="-10"/>
      <point x="218" y="23"/>
      <point x="218" y="64" type="curve" smooth="yes"/>
      <point x="218" y="107"/>
      <point x="185" y="141"/>
      <point x="141" y="141" type="curve" smooth="yes"/>
      <point x="99" y="141"/>
      <point x="66" y="107"/>
    </contour>
    <contour>
      <point x="66" y="380" type="curve" smooth="yes"/>
      <point x="66" y="339"/>
      <point x="99" y="306"/>
      <point x="141" y="306" type="curve" smooth="yes"/>
      <point x="185" y="306"/>
      <point x="218" y="339"/>
      <point x="218" y="380" type="curve" smooth="yes"/>
      <point x="218" y="423"/>
      <point x="185" y="457"/>
      <point x="141" y="457" type="curve" smooth="yes"/>
      <point x="99" y="457"/>
      <point x="66" y="423"/>
    </contour>
  </outline>
</glyph>
<glyph name="semicolon" format="1">
  <advance width="295"/>
  <unicode hex="003B"/>
  <outline>
    <contour>
      <point x="78" y="-155" type="line"/>
      <point x="178" y="-89"/>
      <point x="225" y="-24"/>
      <point x="225" y="48" type="curve" smooth="yes"/>
      <point x="225" y="105"/>
      <point x="195" y="141"/>
      <point x="148" y="141" type="curve" smooth="yes"/>
      <point x="106" y="141"/>
      <point x="73" y="108"/>
      <point x="73" y="64" type="curve" smooth="yes"/>
      <point x="73" y="29"/>
      <point x="96" y="0"/>
      <point x="124" y="0" type="curve" smooth="yes"/>
      <point x="134" y="0"/>
      <point x="147" y="4"/>
      <point x="154" y="8" type="curve"/>
      <point x="154" y="-28"/>
      <point x="121" y="-65"/>
      <point x="49" y="-113" type="curve"/>
    </contour>
    <contour>
      <point x="73" y="380" type="curve" smooth="yes"/>
      <point x="73" y="339"/>
      <point x="106" y="306"/>
      <point x="148" y="306" type="curve" smooth="yes"/>
      <point x="192" y="306"/>
      <point x="225" y="339"/>
      <point x="225" y="380" type="curve" smooth="yes"/>
      <point x="225" y="423"/>
      <point x="192" y="457"/>
      <point x="148" y="457" type="curve" smooth="yes"/>
      <point x="106" y="457"/>
      <point x="73" y="423"/>
    </contour>
  </outline>
</glyph>
<glyph name="less" format="1">
  <advance width="593"/>
  <unicode hex="003C"/>
  <outline>
    <contour>
      <point x="96" y="336" type="line"/>
      <point x="516" y="531" type="line"/>
      <point x="516" y="600" type="line"/>
      <point x="36" y="368" type="line"/>
      <point x="36" y="304" type="line"/>
      <point x="516" y="72" type="line"/>
      <point x="516" y="141" type="line"/>
    </contour>
  </outline>
</glyph>
<glyph name="equal" format="1">
  <advance width="618"/>
  <unicode hex="003D"/>
  <outline>
    <contour>
      <point x="547" y="482" type="line"/>
      <point x="71" y="482" type="line"/>
      <point x="71" y="422" type="line"/>
      <point x="547" y="422" type="line"/>
    </contour>
    <contour>
      <point x="547" y="302" type="line"/>
      <point x="71" y="302" type="line"/>
      <point x="71" y="242" type="line"/>
      <point x="547" y="242" type="line"/>
    </contour>
  </outline>
</glyph>
<glyph name="greater" format="1">
  <advance width="593"/>
  <unicode hex="003E"/>
  <outline>
    <contour>
      <point x="77" y="141" type="line"/>
      <point x="77" y="72" type="line"/>
      <point x="557" y="304" type="line"/>
      <point x="557" y="368" type="line"/>
      <point x="77" y="600" type="line"/>
      <point x="77" y="531" type="line"/>
      <point x="497" y="336" type="line"/>
    </contour>
  </outline>
</glyph>
<glyph name="question" format="1">
  <advance width="403"/>
  <unicode hex="003F"/>
  <outline>
    <contour>
      <point x="186" y="239" type="line"/>
      <point x="186" y="360" type="line"/>
      <point x="294" y="360"/>
      <point x="357" y="423"/>
      <point x="357" y="530" type="curve" smooth="yes"/>
      <point x="357" y="661"/>
      <point x="248" y="780"/>
      <point x="129" y="780" type="curve" smooth="yes"/>
      <point x="81" y="780"/>
      <point x="54" y="759"/>
      <point x="54" y="719" type="curve" smooth="yes"/>
      <point x="54" y="684"/>
      <point x="81" y="660"/>
      <point x="120" y="660" type="curve" smooth="yes"/>
      <point x="143" y="660"/>
      <point x="173" y="671"/>
      <point x="199" y="671" type="curve" smooth="yes"/>
      <point x="249" y="671"/>
      <point x="290" y="623"/>
      <point x="290" y="565" type="curve" smooth="yes"/>
      <point x="290" y="507"/>
      <point x="244" y="476"/>
      <point x="153" y="476" type="curve" smooth="yes"/>
      <point x="118" y="476" type="line"/>
      <point x="118" y="239" type="line"/>
    </contour>
    <contour>
      <point x="72" y="65" type="curve" smooth="yes"/>
      <point x="72" y="22"/>
      <point x="105" y="-10"/>
      <point x="148" y="-10" type="curve" smooth="yes"/>
      <point x="191" y="-10"/>
      <point x="224" y="23"/>
      <point x="224" y="65" type="curve" smooth="yes"/>
      <point x="224" y="107"/>
      <point x="190" y="141"/>
      <point x="148" y="141" type="curve" smooth="yes"/>
      <point x="105" y="141"/>
      <point x="72" y="107"/>
    </contour>
  </outline>
</glyph>
<glyph name="at" format="1">
  <advance width="1061"/>
  <unicode hex="0040"/>
  <outline>
    <contour>
      <point x="713" y="530" type="line"/>
      <point x="834" y="530" type="line"/>
      <point x="764" y="303" type="line" smooth="yes"/>
      <point x="744" y="238"/>
      <point x="736" y="196"/>
      <point x="736" y="177" type="curve" smooth="yes"/>
      <point x="736" y="153"/>
      <point x="754" y="137"/>
      <point x="782" y="137" type="curve" smooth="yes"/>
      <point x="865" y="137"/>
      <point x="953" y="282"/>
      <point x="953" y="418" type="curve" smooth="yes"/>
      <point x="953" y="595"/>
      <point x="802" y="725"/>
      <point x="597" y="725" type="curve" smooth="yes"/>
      <point x="353" y="725"/>
      <point x="166" y="540"/>
      <point x="166" y="300" type="curve" smooth="yes"/>
      <point x="166" y="75"/>
      <point x="330" y="-76"/>
      <point x="573" y="-76" type="curve" smooth="yes"/>
      <point x="688" y="-76"/>
      <point x="794" y="-43"/>
      <point x="893" y="24" type="curve"/>
      <point x="925" y="-17" type="line"/>
      <point x="800" y="-99"/>
      <point x="690" y="-134"/>
      <point x="557" y="-134" type="curve" smooth="yes"/>
      <point x="255" y="-134"/>
      <point x="40" y="47"/>
      <point x="40" y="301" type="curve" smooth="yes"/>
      <point x="40" y="569"/>
      <point x="280" y="780"/>
      <point x="587" y="780" type="curve" smooth="yes"/>
      <point x="840" y="780"/>
      <point x="1010" y="636"/>
      <point x="1010" y="422" type="curve" smooth="yes"/>
      <point x="1010" y="237"/>
      <point x="885" y="77"/>
      <point x="740" y="77" type="curve" smooth="yes"/>
      <point x="668" y="77"/>
      <point x="629" y="118"/>
      <point x="623" y="192" type="curve"/>
      <point x="619" y="192" type="line"/>
      <point x="575" y="119"/>
      <point x="511" y="77"/>
      <point x="446" y="77" type="curve" smooth="yes"/>
      <point x="354" y="77"/>
      <point x="279" y="161"/>
      <point x="279" y="263" type="curve" smooth="yes"/>
      <point x="279" y="402"/>
      <point x="423" y="540"/>
      <point x="568" y="540" type="curve" smooth="yes"/>
      <point x="633" y="540"/>
      <point x="666" y="513"/>
      <point x="686" y="442" type="curve"/>
      <point x="690" y="442" type="line"/>
    </contour>
    <contour>
      <point x="580" y="488" type="curve" smooth="yes"/>
      <point x="493" y="488"/>
      <point x="412" y="367"/>
      <point x="412" y="236" type="curve" smooth="yes"/>
      <point x="412" y="168"/>
      <point x="433" y="132"/>
      <point x="472" y="132" type="curve" smooth="yes"/>
      <point x="552" y="132"/>
      <point x="651" y="276"/>
      <point x="651" y="393" type="curve" smooth="yes"/>
      <point x="651" y="454"/>
      <point x="626" y="488"/>
    </contour>
  </outline>
</glyph>
<glyph name="A" format="1">
  <advance width="809"/>
  <unicode hex="0041"/>
  <outline>
    <contour>
      <point x="399" y="830" type="move" name="topcap"/>
    </contour>
    <contour>
      <point x="666" y="0" type="move" name="bottom"/>
    </contour>
    <contour>
      <point x="524" y="173" type="line" smooth="yes"/>
      <point x="540" y="131"/>
      <point x="550" y="102"/>
      <point x="550" y="83" type="curve" smooth="yes"/>
      <point x="550" y="51"/>
      <point x="524" y="44"/>
      <point x="460" y="41" type="curve"/>
      <point x="460" y="0" type="line"/>
      <point x="838" y="0" type="line"/>
      <point x="838" y="41" type="line"/>
      <point x="748" y="50"/>
      <point x="733" y="61"/>
      <point x="678" y="196" type="curve" smooth="yes"/>
      <point x="439" y="780" type="line"/>
      <point x="365" y="780" type="line"/>
      <point x="102" y="121" type="line" smooth="yes"/>
      <point x="79" y="64"/>
      <point x="51" y="47"/>
      <point x="-13" y="40" type="curve"/>
      <point x="-13" y="0" type="line"/>
      <point x="261" y="0" type="line"/>
      <point x="261" y="40" type="line"/>
      <point x="201" y="40"/>
      <point x="171" y="46"/>
      <point x="171" y="86" type="curve" smooth="yes"/>
      <point x="171" y="114"/>
      <point x="186" y="161"/>
      <point x="218" y="233" type="curve"/>
      <point x="501" y="233" type="line"/>
    </contour>
    <contour>
      <point x="360" y="596" type="line"/>
      <point x="364" y="596" type="line"/>
      <point x="479" y="293" type="line"/>
      <point x="241" y="293" type="line"/>
    </contour>
  </outline>
</glyph>
<glyph name="D" format="1">
  <advance width="919"/>
  <unicode hex="0044"/>
  <outline>
    <contour>
      <point x="466" y="830" type="move" name="topcap"/>
    </contour>
    <contour>
      <point x="466" y="0" type="move" name="bottom"/>
    </contour>
    <contour>
      <point x="35" y="0" type="line"/>
      <point x="35" y="40" type="line"/>
      <point x="123" y="43"/>
      <point x="140" y="59"/>
      <point x="140" y="154" type="curve" smooth="yes"/>
      <point x="140" y="616" type="line" smooth="yes"/>
      <point x="140" y="709"/>
      <point x="127" y="726"/>
      <point x="51" y="730" type="curve"/>
      <point x="51" y="770" type="line"/>
      <point x="431" y="770" type="line" smooth="yes"/>
      <point x="687" y="770"/>
      <point x="873" y="602"/>
      <point x="873" y="372" type="curve" smooth="yes"/>
      <point x="873" y="153"/>
      <point x="700" y="0"/>
      <point x="452" y="0" type="curve" smooth="yes"/>
    </contour>
    <contour>
      <point x="304" y="709" type="line" smooth="yes"/>
      <point x="293" y="709"/>
      <point x="287" y="702"/>
      <point x="287" y="692" type="curve" smooth="yes"/>
      <point x="287" y="175" type="line" smooth="yes"/>
      <point x="287" y="98"/>
      <point x="334" y="61"/>
      <point x="434" y="61" type="curve" smooth="yes"/>
      <point x="608" y="61"/>
      <point x="706" y="170"/>
      <point x="706" y="370" type="curve" smooth="yes"/>
      <point x="706" y="583"/>
      <point x="601" y="709"/>
      <point x="429" y="709" type="curve" smooth="yes"/>
    </contour>
  </outline>
</glyph>
<glyph name="E" format="1">
  <advance width="764"/>
  <unicode hex="0045"/>
  <outline>
    <contour>
      <point x="404" y="830" type="move" name="topcap"/>
    </contour>
    <contour>
      <point x="404" y="0" type="move" name="bottom"/>
    </contour>
    <contour>
      <point x="287" y="680" type="line" smooth="yes"/>
      <point x="287" y="712"/>
      <point x="291" y="717"/>
      <point x="325" y="717" type="curve" smooth="yes"/>
      <point x="438" y="717" type="line" smooth="yes"/>
      <point x="580" y="717"/>
      <point x="625" y="686"/>
      <point x="642" y="574" type="curve"/>
      <point x="685" y="574" type="line"/>
      <point x="678" y="770" type="line"/>
      <point x="46" y="770" type="line"/>
      <point x="46" y="730" type="line"/>
      <point x="126" y="726"/>
      <point x="140" y="709"/>
      <point x="140" y="616" type="curve" smooth="yes"/>
      <point x="140" y="154" type="line" smooth="yes"/>
      <point x="140" y="60"/>
      <point x="124" y="43"/>
      <point x="35" y="40" type="curve"/>
      <point x="35" y="0" type="line"/>
      <point x="713" y="0" type="line"/>
      <point x="729" y="229" type="line"/>
      <point x="689" y="229" type="line"/>
      <point x="661" y="93"/>
      <point x="610" y="55"/>
      <point x="458" y="55" type="curve" smooth="yes"/>
      <point x="329" y="55"/>
      <point x="287" y="83"/>
      <point x="287" y="169" type="curve" smooth="yes"/>
      <point x="287" y="375" type="line"/>
      <point x="454" y="375"/>
      <point x="478" y="363"/>
      <point x="495" y="255" type="curve"/>
      <point x="532" y="255" type="line"/>
      <point x="532" y="548" type="line"/>
      <point x="495" y="548" type="line"/>
      <point x="483" y="440"/>
      <point x="458" y="426"/>
      <point x="287" y="426" type="curve"/>
    </contour>
  </outline>
</glyph>
<glyph name="F" format="1">
  <advance width="689"/>
  <unicode hex="0046"/>
  <outline>
    <contour>
      <point x="287" y="161" type="line" smooth="yes"/>
      <point x="287" y="59"/>
      <point x="306" y="43"/>
      <point x="433" y="40" type="curve"/>
      <point x="433" y="0" type="line"/>
      <point x="35" y="0" type="line"/>
      <point x="35" y="40" type="line"/>
      <point x="124" y="43"/>
      <point x="140" y="60"/>
      <point x="140" y="154" type="curve" smooth="yes"/>
      <point x="140" y="616" type="line" smooth="yes"/>
      <point x="140" y="709"/>
      <point x="126" y="726"/>
      <point x="46" y="730" type="curve"/>
      <point x="46" y="770" type="line"/>
      <point x="658" y="770" type="line"/>
      <point x="670" y="559" type="line"/>
      <point x="628" y="559" type="line"/>
      <point x="612" y="673"/>
      <point x="572" y="714"/>
      <point x="443" y="714" type="curve" smooth="yes"/>
      <point x="305" y="714" type="line" smooth="yes"/>
      <point x="294" y="714"/>
      <point x="287" y="708"/>
      <point x="287" y="697" type="curve" smooth="yes"/>
      <point x="287" y="408" type="line"/>
      <point x="449" y="408"/>
      <point x="485" y="430"/>
      <point x="495" y="538" type="curve"/>
      <point x="532" y="538" type="line"/>
      <point x="532" y="225" type="line"/>
      <point x="495" y="225" type="line"/>
      <point x="479" y="337"/>
      <point x="445" y="354"/>
      <point x="287" y="355" type="curve"/>
    </contour>
  </outline>
</glyph>
<glyph name="G" format="1">
  <advance width="876"/>
  <unicode hex="0047"/>
  <outline>
    <contour>
      <point x="457" y="830" type="move" name="topcap"/>
    </contour>
    <contour>
      <point x="441" y="0" type="move" name="bottom"/>
    </contour>
    <contour>
      <point x="438" y="-10" type="curve" smooth="yes"/>
      <point x="514" y="-10"/>
      <point x="579" y="5"/>
      <point x="630" y="35" type="curve" smooth="yes"/>
      <point x="703" y="79"/>
      <point x="716" y="83"/>
      <point x="774" y="83" type="curve"/>
      <point x="774" y="216" type="line" smooth="yes"/>
      <point x="774" y="291"/>
      <point x="796" y="315"/>
      <point x="861" y="315" type="curve"/>
      <point x="861" y="355" type="line"/>
      <point x="537" y="355" type="line"/>
      <point x="537" y="315" type="line"/>
      <point x="612" y="309"/>
      <point x="642" y="282"/>
      <point x="642" y="221" type="curve" smooth="yes"/>
      <point x="642" y="119"/>
      <point x="574" y="57"/>
      <point x="462" y="57" type="curve" smooth="yes"/>
      <point x="306" y="57"/>
      <point x="220" y="172"/>
      <point x="220" y="379" type="curve" smooth="yes"/>
      <point x="220" y="590"/>
      <point x="310" y="715"/>
      <point x="462" y="715" type="curve" smooth="yes"/>
      <point x="583" y="715"/>
      <point x="668" y="642"/>
      <point x="694" y="517" type="curve"/>
      <point x="744" y="517" type="line"/>
      <point x="744" y="770" type="line"/>
      <point x="708" y="770" type="line"/>
      <point x="689" y="708" type="line"/>
      <point x="602" y="759"/>
      <point x="533" y="780"/>
      <point x="450" y="780" type="curve" smooth="yes"/>
      <point x="211" y="780"/>
      <point x="47" y="614"/>
      <point x="47" y="371" type="curve" smooth="yes"/>
      <point x="47" y="137"/>
      <point x="198" y="-10"/>
    </contour>
  </outline>
</glyph>
<glyph name="K" format="1">
  <advance width="822"/>
  <unicode hex="004B"/>
  <outline>
    <contour>
      <point x="438" y="0" type="move" name="bottom"/>
    </contour>
    <contour>
      <point x="287" y="161" type="line" smooth="yes"/>
      <point x="287" y="60"/>
      <point x="300" y="43"/>
      <point x="382" y="40" type="curve"/>
      <point x="382" y="0" type="line"/>
      <point x="35" y="0" type="line"/>
      <point x="35" y="40" type="line"/>
      <point x="124" y="43"/>
      <point x="140" y="60"/>
      <point x="140" y="154" type="curve" smooth="yes"/>
      <point x="140" y="616" type="line" smooth="yes"/>
      <point x="140" y="708"/>
      <point x="126" y="726"/>
      <point x="46" y="730" type="curve"/>
      <point x="46" y="770" type="line"/>
      <point x="391" y="770" type="line"/>
      <point x="391" y="730" type="line"/>
      <point x="301" y="727"/>
      <point x="287" y="710"/>
      <point x="287" y="609" type="curve" smooth="yes"/>
      <point x="287" y="387" type="line"/>
      <point x="546" y="665" type="line" smooth="yes"/>
      <point x="561" y="681"/>
      <point x="569" y="694"/>
      <point x="569" y="707" type="curve" smooth="yes"/>
      <point x="569" y="721"/>
      <point x="553" y="730"/>
      <point x="501" y="730" type="curve"/>
      <point x="501" y="770" type="line"/>
      <point x="774" y="770" type="line"/>
      <point x="774" y="731" type="line"/>
      <point x="715" y="729"/>
      <point x="695" y="719"/>
      <point x="615" y="636" type="curve" smooth="yes"/>
      <point x="437" y="450" type="line"/>
      <point x="731" y="92" type="line" smooth="yes"/>
      <point x="759" y="57"/>
      <point x="790" y="43"/>
      <point x="843" y="40" type="curve"/>
      <point x="843" y="0" type="line"/>
      <point x="473" y="0" type="line"/>
      <point x="473" y="40" type="line"/>
      <point x="527" y="41"/>
      <point x="550" y="49"/>
      <point x="550" y="67" type="curve" smooth="yes"/>
      <point x="550" y="80"/>
      <point x="545" y="89"/>
      <point x="514" y="127" type="curve" smooth="yes"/>
      <point x="337" y="345" type="line"/>
      <point x="287" y="293" type="line"/>
    </contour>
  </outline>
</glyph>
<glyph name="M" format="1">
  <advance width="1145"/>
  <unicode hex="004D"/>
  <outline>
    <contour>
      <point x="581" y="187" type="line"/>
      <point x="812" y="770" type="line"/>
      <point x="1104" y="770" type="line"/>
      <point x="1104" y="730" type="line"/>
      <point x="1015" y="730"/>
      <point x="1001" y="700"/>
      <point x="1001" y="579" type="curve" smooth="yes"/>
      <point x="1001" y="191" type="line" smooth="yes"/>
      <point x="1001" y="59"/>
      <point x="1016" y="43"/>
      <point x="1115" y="40" type="curve"/>
      <point x="1115" y="0" type="line"/>
      <point x="739" y="0" type="line"/>
      <point x="739" y="40" type="line"/>
      <point x="838" y="43"/>
      <point x="854" y="60"/>
      <point x="854" y="184" type="curve" smooth="yes"/>
      <point x="854" y="652" type="line"/>
      <point x="849" y="652" type="line"/>
      <point x="580" y="-10" type="line"/>
      <point x="506" y="-10" type="line"/>
      <point x="228" y="652" type="line"/>
      <point x="224" y="652" type="line"/>
      <point x="224" y="191" type="line" smooth="yes"/>
      <point x="224" y="59"/>
      <point x="239" y="43"/>
      <point x="338" y="40" type="curve"/>
      <point x="338" y="0" type="line"/>
      <point x="30" y="0" type="line"/>
      <point x="30" y="40" type="line"/>
      <point x="129" y="43"/>
      <point x="146" y="60"/>
      <point x="146" y="184" type="curve" smooth="yes"/>
      <point x="146" y="586" type="line" smooth="yes"/>
      <point x="146" y="699"/>
      <point x="131" y="730"/>
      <point x="41" y="730" type="curve"/>
      <point x="41" y="770" type="line"/>
      <point x="344" y="770" type="line"/>
      <point x="577" y="187" type="line"/>
    </contour>
  </outline>
</glyph>
<glyph name="O" format="1">
  <advance width="943"/>
  <unicode hex="004F"/>
  <outline>
    <contour>
      <point x="472" y="830" type="move" name="topcap"/>
    </contour>
    <contour>
      <point x="472" y="0" type="move" name="bottom"/>
    </contour>
    <contour>
      <point x="472" y="780" type="curve" smooth="yes"/>
      <point x="232" y="780"/>
      <point x="45" y="605"/>
      <point x="45" y="379" type="curve" smooth="yes"/>
      <point x="45" y="162"/>
      <point x="234" y="-10"/>
      <point x="472" y="-10" type="curve" smooth="yes"/>
      <point x="710" y="-10"/>
      <point x="899" y="162"/>
      <point x="899" y="379" type="curve" smooth="yes"/>
      <point x="899" y="605"/>
      <point x="712" y="780"/>
    </contour>
    <contour>
      <point x="472" y="55" type="curve" smooth="yes"/>
      <point x="316" y="55"/>
      <point x="219" y="179"/>
      <point x="219" y="376" type="curve" smooth="yes"/>
      <point x="219" y="584"/>
      <point x="316" y="715"/>
      <point x="472" y="715" type="curve" smooth="yes"/>
      <point x="628" y="715"/>
      <point x="725" y="584"/>
      <point x="725" y="376" type="curve" smooth="yes"/>
      <point x="725" y="179"/>
      <point x="627" y="55"/>
    </contour>
  </outline>
</glyph>
<glyph name="R" format="1">
  <advance width="815"/>
  <unicode hex="0052"/>
  <outline>
    <contour>
      <point x="399" y="830" type="move" name="topcap"/>
    </contour>
    <contour>
      <point x="438" y="0" type="move" name="bottom"/>
    </contour>
    <contour>
      <point x="695" y="577" type="curve" smooth="yes"/>
      <point x="695" y="698"/>
      <point x="584" y="770"/>
      <point x="392" y="770" type="curve" smooth="yes"/>
      <point x="46" y="770" type="line"/>
      <point x="46" y="730" type="line"/>
      <point x="128" y="726"/>
      <point x="140" y="709"/>
      <point x="140" y="616" type="curve" smooth="yes"/>
      <point x="140" y="154" type="line" smooth="yes"/>
      <point x="140" y="60"/>
      <point x="123" y="40"/>
      <point x="35" y="40" type="curve"/>
      <point x="35" y="0" type="line"/>
      <point x="432" y="0" type="line"/>
      <point x="432" y="40" type="line"/>
      <point x="305" y="40"/>
      <point x="287" y="60"/>
      <point x="287" y="159" type="curve" smooth="yes"/>
      <point x="287" y="355" type="line"/>
      <point x="308" y="355"/>
      <point x="332" y="344"/>
      <point x="365" y="304" type="curve" smooth="yes"/>
      <point x="613" y="0" type="line"/>
      <point x="850" y="0" type="line"/>
      <point x="850" y="40" type="line"/>
      <point x="805" y="40"/>
      <point x="758" y="60"/>
      <point x="726" y="97" type="curve" smooth="yes"/>
      <point x="494" y="363" type="line"/>
      <point x="634" y="388"/>
      <point x="695" y="466"/>
    </contour>
    <contour>
      <point x="287" y="697" type="line" smooth="yes"/>
      <point x="287" y="707"/>
      <point x="294" y="714"/>
      <point x="305" y="714" type="curve" smooth="yes"/>
      <point x="392" y="714" type="line" smooth="yes"/>
      <point x="484" y="714"/>
      <point x="539" y="657"/>
      <point x="539" y="572" type="curve" smooth="yes"/>
      <point x="539" y="461"/>
      <point x="477" y="415"/>
      <point x="352" y="415" type="curve" smooth="yes"/>
      <point x="287" y="415" type="line"/>
    </contour>
  </outline>
</glyph>
<glyph name="U" format="1">
  <advance width="880"/>
  <unicode hex="0055"/>
  <outline>
    <contour>
      <point x="482" y="830" type="move" name="topcap"/>
    </contour>
    <contour>
      <point x="474" y="0" type="move" name="bottom"/>
    </contour>
    <contour>
      <point x="757" y="522" type="line" smooth="yes"/>
      <point x="757" y="633"/>
      <point x="764" y="680"/>
      <point x="784" y="705" type="curve" smooth="yes"/>
      <point x="799" y="723"/>
      <point x="823" y="730"/>
      <point x="872" y="730" type="curve"/>
      <point x="872" y="770" type="line"/>
      <point x="548" y="770" type="line"/>
      <point x="548" y="730" type="line"/>
      <point x="600" y="730"/>
      <point x="627" y="722"/>
      <point x="645" y="703" type="curve" smooth="yes"/>
      <point x="667" y="678"/>
      <point x="674" y="633"/>
      <point x="674" y="522" type="curve" smooth="yes"/>
      <point x="674" y="291" type="line" smooth="yes"/>
      <point x="674" y="138"/>
      <point x="606" y="62"/>
      <point x="468" y="62" type="curve" smooth="yes"/>
      <point x="334" y="62"/>
      <point x="270" y="134"/>
      <point x="270" y="285" type="curve" smooth="yes"/>
      <point x="270" y="547" type="line" smooth="yes"/>
      <point x="270" y="651"/>
      <point x="275" y="687"/>
      <point x="293" y="708" type="curve" smooth="yes"/>
      <point x="307" y="725"/>
      <point x="330" y="730"/>
      <point x="386" y="730" type="curve"/>
      <point x="386" y="770" type="line"/>
      <point x="27" y="770" type="line"/>
      <point x="27" y="730" type="line"/>
      <point x="74" y="730"/>
      <point x="93" y="724"/>
      <point x="105" y="706" type="curve" smooth="yes"/>
      <point x="119" y="685"/>
      <point x="123" y="650"/>
      <point x="123" y="547" type="curve" smooth="yes"/>
      <point x="123" y="273" type="line" smooth="yes"/>
      <point x="123" y="76"/>
      <point x="218" y="-10"/>
      <point x="433" y="-10" type="curve" smooth="yes"/>
      <point x="662" y="-10"/>
      <point x="757" y="84"/>
      <point x="757" y="310" type="curve" smooth="yes"/>
    </contour>
  </outline>
</glyph>
<glyph name="X" format="1">
  <advance width="848"/>
  <unicode hex="0058"/>
  <outline>
    <contour>
      <point x="499" y="424" type="line"/>
      <point x="722" y="700" type="line" smooth="yes"/>
      <point x="742" y="724"/>
      <point x="770" y="730"/>
      <point x="825" y="730" type="curve"/>
      <point x="825" y="770" type="line"/>
      <point x="527" y="770" type="line"/>
      <point x="527" y="730" type="line"/>
      <point x="596" y="730"/>
      <point x="608" y="719"/>
      <point x="608" y="699" type="curve" smooth="yes"/>
      <point x="608" y="682"/>
      <point x="600" y="663"/>
      <point x="580" y="639" type="curve" smooth="yes"/>
      <point x="451" y="485" type="line"/>
      <point x="348" y="627" type="line" smooth="yes"/>
      <point x="328" y="654"/>
      <point x="318" y="677"/>
      <point x="318" y="694" type="curve" smooth="yes"/>
      <point x="318" y="718"/>
      <point x="338" y="730"/>
      <point x="386" y="730" type="curve"/>
      <point x="386" y="770" type="line"/>
      <point x="10" y="770" type="line"/>
      <point x="10" y="730" type="line"/>
      <point x="55" y="730"/>
      <point x="89" y="719"/>
      <point x="125" y="673" type="curve" smooth="yes"/>
      <point x="358" y="371" type="line"/>
      <point x="139" y="104" type="line" smooth="yes"/>
      <point x="95" y="51"/>
      <point x="71" y="40"/>
      <point x="-2" y="40" type="curve"/>
      <point x="-2" y="0" type="line"/>
      <point x="305" y="0" type="line"/>
      <point x="305" y="40" type="line"/>
      <point x="244" y="40"/>
      <point x="219" y="47"/>
      <point x="219" y="68" type="curve" smooth="yes"/>
      <point x="219" y="99"/>
      <point x="277" y="153"/>
      <point x="335" y="224" type="curve" smooth="yes"/>
      <point x="404" y="309" type="line"/>
      <point x="511" y="157" type="line" smooth="yes"/>
      <point x="553" y="98"/>
      <point x="564" y="82"/>
      <point x="564" y="66" type="curve" smooth="yes"/>
      <point x="564" y="50"/>
      <point x="554" y="40"/>
      <point x="486" y="40" type="curve"/>
      <point x="486" y="0" type="line"/>
      <point x="859" y="0" type="line"/>
      <point x="859" y="40" type="line"/>
      <point x="805" y="40"/>
      <point x="759" y="66"/>
      <point x="726" y="111" type="curve" smooth="yes"/>
    </contour>
  </outline>
</glyph>
<glyph name="bracketleft" format="1">
  <advance width="392"/>
  <unicode hex="005B"/>
  <outline>
    <contour>
      <point x="379" y="768" type="line"/>
      <point x="379" y="820" type="line"/>
      <point x="96" y="820" type="line"/>
      <point x="96" y="-150" type="line"/>
      <point x="379" y="-150" type="line"/>
      <point x="379" y="-98" type="line"/>
      <point x="220" y="-98" type="line"/>
      <point x="220" y="768" type="line"/>
    </contour>
  </outline>
</glyph>
<glyph name="backslash" format="1">
  <advance width="477"/>
  <unicode hex="005C"/>
  <outline>
    <contour>
      <point x="383" y="0" type="line"/>
      <point x="454" y="0" type="line"/>
      <point x="83" y="770" type="line"/>
      <point x="22" y="770" type="line"/>
    </contour>
  </outline>
</glyph>
<glyph name="bracketright" format="1">
  <advance width="392"/>
  <unicode hex="005D"/>
  <outline>
    <contour>
      <point x="172" y="768" type="line"/>
      <point x="172" y="-98" type="line"/>
      <point x="13" y="-98" type="line"/>
      <point x="13" y="-150" type="line"/>
      <point x="296" y="-150" type="line"/>
      <point x="296" y="820" type="line"/>
      <point x="13" y="820" type="line"/>
      <point x="13" y="768" type="line"/>
    </contour>
  </outline>
</glyph>
<glyph name="asciicircum" format="1">
  <advance width="492"/>
  <unicode hex="005E"/>
  <outline>
    <contour>
      <point x="199" y="410" type="line"/>
      <point x="64" y="230" type="line"/>
      <point x="121" y="230" type="line"/>
      <point x="246" y="329" type="line"/>
      <point x="371" y="230" type="line"/>
      <point x="428" y="230" type="line"/>
      <point x="293" y="410" type="line"/>
    </contour>
  </outline>
</glyph>
<glyph name="underscore" format="1">
  <advance width="730"/>
  <unicode hex="005F"/>
  <outline>
    <contour>
      <point x="664" y="-148" type="line"/>
      <point x="664" y="-70" type="line"/>
      <point x="66" y="-70" type="line"/>
      <point x="66" y="-148" type="line"/>
    </contour>
  </outline>
</glyph>
<glyph name="grave" format="1">
  <advance width="299"/>
  <unicode hex="0060"/>
  <outline>
    <contour>
      <point x="163" y="651" type="move" name="_top"/>
    </contour>
    <contour>
      <point x="283" y="651" type="line"/>
      <point x="156" y="770" type="line" smooth="yes"/>
      <point x="124" y="800"/>
      <point x="98" y="813"/>
      <point x="71" y="813" type="curve" smooth="yes"/>
      <point x="38" y="813"/>
      <point x="16" y="796"/>
      <point x="16" y="768" type="curve" smooth="yes"/>
      <point x="16" y="745"/>
      <point x="43" y="730"/>
      <point x="85" y="711" type="curve" smooth="yes"/>
      <point x="219" y="651" type="line"/>
    </contour>
  </outline>
</glyph>
<glyph name="a" format="1">
  <advance width="574"/>
  <unicode hex="0061"/>
  <outline>
    <contour>
      <point x="243" y="651" type="move" name="top"/>
    </contour>
    <contour>
      <point x="433" y="0" type="move" name="bottom"/>
    </contour>
    <contour>
      <point x="344" y="190" type="line" smooth="yes"/>
      <point x="344" y="131"/>
      <point x="296" y="84"/>
      <point x="231" y="84" type="curve" smooth="yes"/>
      <point x="199" y="84"/>
      <point x="175" y="108"/>
      <point x="175" y="147" type="curve" smooth="yes"/>
      <point x="175" y="194"/>
      <point x="233" y="234"/>
      <point x="344" y="285" type="curve"/>
    </contour>
    <contour>
      <point x="203" y="277" type="line" smooth="yes"/>
      <point x="82" y="228"/>
      <point x="34" y="177"/>
      <point x="34" y="119" type="curve" smooth="yes"/>
      <point x="34" y="43"/>
      <point x="90" y="-9"/>
      <point x="173" y="-9" type="curve" smooth="yes"/>
      <point x="251" y="-9"/>
      <point x="315" y="28"/>
      <point x="353" y="97" type="curve"/>
      <point x="358" y="97" type="line"/>
      <point x="358" y="29"/>
      <point x="391" y="-10"/>
      <point x="452" y="-10" type="curve" smooth="yes"/>
      <point x="501" y="-10"/>
      <point x="544" y="11"/>
      <point x="562" y="44" type="curve"/>
      <point x="547" y="73" type="line"/>
      <point x="536" y="64"/>
      <point x="525" y="60"/>
      <point x="512" y="60" type="curve" smooth="yes"/>
      <point x="489" y="60"/>
      <point x="478" y="88"/>
      <point x="478" y="145" type="curve" smooth="yes"/>
      <point x="478" y="364" type="line" smooth="yes"/>
      <point x="478" y="491"/>
      <point x="420" y="540"/>
      <point x="270" y="540" type="curve" smooth="yes"/>
      <point x="130" y="540"/>
      <point x="59" y="499"/>
      <point x="59" y="436" type="curve" smooth="yes"/>
      <point x="59" y="395"/>
      <point x="80" y="371"/>
      <point x="117" y="371" type="curve" smooth="yes"/>
      <point x="155" y="371"/>
      <point x="176" y="391"/>
      <point x="188" y="424" type="curve" smooth="yes"/>
      <point x="205" y="472"/>
      <point x="222" y="491"/>
      <point x="260" y="491" type="curve" smooth="yes"/>
      <point x="317" y="491"/>
      <point x="344" y="457"/>
      <point x="344" y="380" type="curve" smooth="yes"/>
      <point x="344" y="338" type="line"/>
    </contour>
  </outline>
</glyph>
<glyph name="d" format="1">
  <advance width="694"/>
  <unicode hex="0064"/>
  <outline>
    <contour>
      <point x="305" y="0" type="move" name="bottom"/>
    </contour>
    <contour>
      <point x="481" y="-10" type="line"/>
      <point x="671" y="1" type="line"/>
      <point x="671" y="40" type="line"/>
      <point x="614" y="40"/>
      <point x="603" y="46"/>
      <point x="597" y="81" type="curve" smooth="yes"/>
      <point x="592" y="109"/>
      <point x="590" y="159"/>
      <point x="590" y="258" type="curve" smooth="yes"/>
      <point x="590" y="830" type="line"/>
      <point x="337" y="790" type="line"/>
      <point x="337" y="756" type="line"/>
      <point x="407" y="756"/>
      <point x="440" y="744"/>
      <point x="446" y="716" type="curve" smooth="yes"/>
      <point x="450" y="699"/>
      <point x="452" y="637"/>
      <point x="452" y="559" type="curve" smooth="yes"/>
      <point x="452" y="474" type="line"/>
      <point x="448" y="474" type="line"/>
      <point x="410" y="522"/>
      <point x="358" y="540"/>
      <point x="292" y="540" type="curve" smooth="yes"/>
      <point x="148" y="540"/>
      <point x="39" y="420"/>
      <point x="39" y="261" type="curve" smooth="yes"/>
      <point x="39" y="102"/>
      <point x="146" y="-10"/>
      <point x="298" y="-10" type="curve" smooth="yes"/>
      <point x="370" y="-10"/>
      <point x="431" y="15"/>
      <point x="477" y="64" type="curve"/>
      <point x="481" y="64" type="line"/>
    </contour>
    <contour>
      <point x="450" y="248" type="line" smooth="yes"/>
      <point x="450" y="180"/>
      <point x="442" y="139"/>
      <point x="423" y="110" type="curve" smooth="yes"/>
      <point x="398" y="71"/>
      <point x="355" y="47"/>
      <point x="311" y="47" type="curve" smooth="yes"/>
      <point x="234" y="47"/>
      <point x="191" y="125"/>
      <point x="191" y="263" type="curve" smooth="yes"/>
      <point x="191" y="399"/>
      <point x="234" y="474"/>
      <point x="312" y="474" type="curve" smooth="yes"/>
      <point x="355" y="474"/>
      <point x="394" y="453"/>
      <point x="418" y="415" type="curve" smooth="yes"/>
      <point x="439" y="382"/>
      <point x="450" y="337"/>
      <point x="450" y="287" type="curve" smooth="yes"/>
    </contour>
  </outline>
</glyph>
<glyph name="g" format="1">
  <advance width="610"/>
  <unicode hex="0067"/>
  <outline>
    <contour>
      <point x="228" y="108" type="curve" smooth="yes"/>
      <point x="198" y="111"/>
      <point x="183" y="120"/>
      <point x="183" y="136" type="curve" smooth="yes"/>
      <point x="183" y="157"/>
      <point x="205" y="166"/>
      <point x="268" y="173" type="curve" smooth="yes"/>
      <point x="419" y="190"/>
      <point x="480" y="264"/>
      <point x="480" y="364" type="curve" smooth="yes"/>
      <point x="480" y="398"/>
      <point x="475" y="423"/>
      <point x="462" y="446" type="curve"/>
      <point x="474" y="463"/>
      <point x="489" y="473"/>
      <point x="502" y="473" type="curve" smooth="yes"/>
      <point x="542" y="473"/>
      <point x="545" y="430"/>
      <point x="585" y="430" type="curve" smooth="yes"/>
      <point x="613" y="430"/>
      <point x="632" y="450"/>
      <point x="632" y="478" type="curve" smooth="yes"/>
      <point x="632" y="515"/>
      <point x="598" y="540"/>
      <point x="547" y="540" type="curve" smooth="yes"/>
      <point x="514" y="540"/>
      <point x="486" y="529"/>
      <point x="425" y="491" type="curve"/>
      <point x="386" y="521"/>
      <point x="328" y="540"/>
      <point x="271" y="540" type="curve" smooth="yes"/>
      <point x="154" y="540"/>
      <point x="66" y="465"/>
      <point x="66" y="365" type="curve" smooth="yes"/>
      <point x="66" y="297"/>
      <point x="109" y="231"/>
      <point x="169" y="207" type="curve"/>
      <point x="169" y="203" type="line"/>
      <point x="104" y="190"/>
      <point x="67" y="154"/>
      <point x="67" y="100" type="curve" smooth="yes"/>
      <point x="67" y="45"/>
      <point x="104" y="11"/>
      <point x="178" y="1" type="curve" smooth="yes"/>
      <point x="353" y="-23" type="line" smooth="yes"/>
      <point x="409" y="-30"/>
      <point x="440" y="-66"/>
      <point x="440" y="-111" type="curve" smooth="yes"/>
      <point x="440" y="-174"/>
      <point x="389" y="-206"/>
      <point x="290" y="-206" type="curve" smooth="yes"/>
      <point x="199" y="-206"/>
      <point x="150" y="-176"/>
      <point x="150" y="-123" type="curve" smooth="yes"/>
      <point x="150" y="-90"/>
      <point x="174" y="-63"/>
      <point x="209" y="-56" type="curve"/>
      <point x="187" y="-30"/>
      <point x="152" y="-15"/>
      <point x="117" y="-15" type="curve" smooth="yes"/>
      <point x="63" y="-15"/>
      <point x="22" y="-51"/>
      <point x="22" y="-120" type="curve" smooth="yes"/>
      <point x="22" y="-209"/>
      <point x="117" y="-260"/>
      <point x="282" y="-260" type="curve" smooth="yes"/>
      <point x="462" y="-260"/>
      <point x="558" y="-200"/>
      <point x="558" y="-87" type="curve" smooth="yes"/>
      <point x="558" y="6"/>
      <point x="494" y="74"/>
      <point x="391" y="89" type="curve" smooth="yes"/>
      <point x="334" y="98"/>
      <point x="299" y="102"/>
    </contour>
    <contour>
      <point x="276" y="230" type="curve" smooth="yes"/>
      <point x="231" y="230"/>
      <point x="201" y="282"/>
      <point x="201" y="361" type="curve" smooth="yes"/>
      <point x="201" y="439"/>
      <point x="230" y="488"/>
      <point x="275" y="488" type="curve" smooth="yes"/>
      <point x="319" y="488"/>
      <point x="344" y="441"/>
      <point x="344" y="359" type="curve" smooth="yes"/>
      <point x="344" y="278"/>
      <point x="319" y="230"/>
    </contour>
  </outline>
</glyph>
<glyph name="h" format="1">
  <advance width="714"/>
  <unicode hex="0068"/>
  <outline>
    <contour>
      <point x="402" y="651" type="move" name="top"/>
    </contour>
    <contour>
      <point x="359" y="0" type="move" name="bottom"/>
    </contour>
    <contour>
      <point x="244" y="297" type="line" smooth="yes"/>
      <point x="244" y="353"/>
      <point x="257" y="399"/>
      <point x="280" y="430" type="curve" smooth="yes"/>
      <point x="303" y="459"/>
      <point x="334" y="474"/>
      <point x="375" y="474" type="curve" smooth="yes"/>
      <point x="450" y="474"/>
      <point x="477" y="422"/>
      <point x="477" y="280" type="curve" smooth="yes"/>
      <point x="477" y="157" type="line" smooth="yes"/>
      <point x="477" y="56"/>
      <point x="468" y="44"/>
      <point x="388" y="40" type="curve"/>
      <point x="388" y="0" type="line"/>
      <point x="701" y="0" type="line"/>
      <point x="701" y="40" type="line"/>
      <point x="622" y="45"/>
      <point x="616" y="53"/>
      <point x="616" y="164" type="curve" smooth="yes"/>
      <point x="616" y="319" type="line" smooth="yes"/>
      <point x="616" y="380"/>
      <point x="595" y="440"/>
      <point x="560" y="480" type="curve" smooth="yes"/>
      <point x="524" y="520"/>
      <point x="473" y="540"/>
      <point x="408" y="540" type="curve" smooth="yes"/>
      <point x="337" y="540"/>
      <point x="287" y="515"/>
      <point x="246" y="461" type="curve"/>
      <point x="242" y="461" type="line"/>
      <point x="242" y="830" type="line"/>
      <point x="19" y="792" type="line"/>
      <point x="19" y="755" type="line"/>
      <point x="79" y="755"/>
      <point x="91" y="749"/>
      <point x="98" y="715" type="curve" smooth="yes"/>
      <point x="103" y="691"/>
      <point x="105" y="647"/>
      <point x="105" y="568" type="curve" smooth="yes"/>
      <point x="105" y="157" type="line" smooth="yes"/>
      <point x="105" y="56"/>
      <point x="97" y="45"/>
      <point x="16" y="40" type="curve"/>
      <point x="16" y="0" type="line"/>
      <point x="331" y="0" type="line"/>
      <point x="331" y="40" type="line"/>
      <point x="251" y="45"/>
      <point x="244" y="55"/>
      <point x="244" y="164" type="curve" smooth="yes"/>
    </contour>
  </outline>
</glyph>
<glyph name="i" format="1">
  <advance width="361"/>
  <unicode hex="0069"/>
  <outline>
    <contour>
      <point x="188" y="0" type="move" name="bottom"/>
    </contour>
    <contour>
      <point x="184" y="651" type="move" name="top"/>
    </contour>
    <contour>
      <point x="257" y="540" type="line"/>
      <point x="25" y="502" type="line"/>
      <point x="25" y="468" type="line"/>
      <point x="86" y="468"/>
      <point x="104" y="460"/>
      <point x="111" y="427" type="curve" smooth="yes"/>
      <point x="115" y="409"/>
      <point x="118" y="357"/>
      <point x="118" y="280" type="curve" smooth="yes"/>
      <point x="118" y="157" type="line" smooth="yes"/>
      <point x="118" y="63"/>
      <point x="104" y="44"/>
      <point x="29" y="40" type="curve"/>
      <point x="29" y="0" type="line"/>
      <point x="344" y="0" type="line"/>
      <point x="344" y="40" type="line"/>
      <point x="267" y="43"/>
      <point x="257" y="58"/>
      <point x="257" y="164" type="curve" smooth="yes"/>
    </contour>
    <contour>
      <point x="110" y="752" type="curve" smooth="yes"/>
      <point x="110" y="709"/>
      <point x="144" y="675"/>
      <point x="187" y="675" type="curve" smooth="yes"/>
      <point x="231" y="675"/>
      <point x="265" y="709"/>
      <point x="265" y="752" type="curve" smooth="yes"/>
      <point x="265" y="796"/>
      <point x="231" y="830"/>
      <point x="187" y="830" type="curve" smooth="yes"/>
      <point x="144" y="830"/>
      <point x="110" y="796"/>
    </contour>
  </outline>
</glyph>
<glyph name="k" format="1">
  <advance width="664"/>
  <unicode hex="006B"/>
  <outline>
    <contour>
      <point x="345" y="0" type="move" name="bottom"/>
    </contour>
    <contour>
      <point x="358" y="0" type="line"/>
      <point x="669" y="0" type="line"/>
      <point x="669" y="40" type="line"/>
      <point x="621" y="40"/>
      <point x="597" y="53"/>
      <point x="566" y="96" type="curve" smooth="yes"/>
      <point x="393" y="341" type="line"/>
      <point x="490" y="432" type="line" smooth="yes"/>
      <point x="536" y="475"/>
      <point x="569" y="490"/>
      <point x="620" y="490" type="curve"/>
      <point x="620" y="530" type="line"/>
      <point x="347" y="530" type="line"/>
      <point x="347" y="490" type="line"/>
      <point x="413" y="490"/>
      <point x="434" y="486"/>
      <point x="434" y="474" type="curve" smooth="yes"/>
      <point x="434" y="460"/>
      <point x="407" y="430"/>
      <point x="338" y="365" type="curve" smooth="yes"/>
      <point x="242" y="274" type="line"/>
      <point x="242" y="830" type="line"/>
      <point x="19" y="792" type="line"/>
      <point x="19" y="755" type="line"/>
      <point x="100" y="755"/>
      <point x="105" y="745"/>
      <point x="105" y="581" type="curve" smooth="yes"/>
      <point x="105" y="157" type="line" smooth="yes"/>
      <point x="105" y="62"/>
      <point x="90" y="42"/>
      <point x="16" y="40" type="curve"/>
      <point x="16" y="0" type="line"/>
      <point x="311" y="0" type="line"/>
      <point x="311" y="40" type="line"/>
      <point x="254" y="40"/>
      <point x="242" y="61"/>
      <point x="242" y="164" type="curve" smooth="yes"/>
      <point x="242" y="203" type="line"/>
      <point x="292" y="251" type="line"/>
      <point x="368" y="137" type="line" smooth="yes"/>
      <point x="396" y="96"/>
      <point x="416" y="61"/>
      <point x="416" y="53" type="curve" smooth="yes"/>
      <point x="416" y="43"/>
      <point x="401" y="40"/>
      <point x="358" y="40" type="curve"/>
    </contour>
  </outline>
</glyph>
<glyph name="s" format="1">
  <advance width="466"/>
  <unicode hex="0073"/>
  <outline>
    <contour>
      <point x="222" y="651" type="move" name="top"/>
    </contour>
    <contour>
      <point x="240" y="1" type="move" name="bottom"/>
    </contour>
    <contour>
      <point x="107" y="35" type="line"/>
      <point x="139" y="6"/>
      <point x="191" y="-10"/>
      <point x="248" y="-10" type="curve" smooth="yes"/>
      <point x="358" y="-10"/>
      <point x="430" y="51"/>
      <point x="430" y="143" type="curve" smooth="yes"/>
      <point x="430" y="215"/>
      <point x="387" y="266"/>
      <point x="279" y="324" type="curve" smooth="yes"/>
      <point x="204" y="364"/>
      <point x="173" y="395"/>
      <point x="173" y="432" type="curve" smooth="yes"/>
      <point x="173" y="465"/>
      <point x="197" y="487"/>
      <point x="234" y="487" type="curve" smooth="yes"/>
      <point x="280" y="487"/>
      <point x="310" y="456"/>
      <point x="341" y="380" type="curve"/>
      <point x="380" y="380" type="line"/>
      <point x="380" y="531" type="line"/>
      <point x="354" y="531" type="line"/>
      <point x="336" y="507" type="line"/>
      <point x="306" y="528"/>
      <point x="262" y="541"/>
      <point x="221" y="541" type="curve" smooth="yes"/>
      <point x="128" y="541"/>
      <point x="58" y="475"/>
      <point x="58" y="386" type="curve" smooth="yes"/>
      <point x="58" y="318"/>
      <point x="99" y="268"/>
      <point x="200" y="213" type="curve" smooth="yes"/>
      <point x="274" y="173"/>
      <point x="306" y="139"/>
      <point x="306" y="102" type="curve" smooth="yes"/>
      <point x="306" y="66"/>
      <point x="277" y="44"/>
      <point x="228" y="44" type="curve" smooth="yes"/>
      <point x="160" y="44"/>
      <point x="119" y="87"/>
      <point x="96" y="182" type="curve"/>
      <point x="54" y="182" type="line"/>
      <point x="54" y="0" type="line"/>
      <point x="85" y="0" type="line"/>
    </contour>
  </outline>
</glyph>
<glyph name="t" format="1">
  <advance width="382"/>
  <unicode hex="0074"/>
  <outline>
    <contour>
      <point x="256" y="0" type="move" name="bottom"/>
    </contour>
    <contour>
      <point x="98" y="475" type="line"/>
      <point x="98" y="112" type="line" smooth="yes"/>
      <point x="98" y="35"/>
      <point x="152" y="-10"/>
      <point x="244" y="-10" type="curve" smooth="yes"/>
      <point x="312" y="-10"/>
      <point x="358" y="15"/>
      <point x="376" y="61" type="curve"/>
      <point x="355" y="90" type="line"/>
      <point x="341" y="65"/>
      <point x="323" y="54"/>
      <point x="296" y="54" type="curve" smooth="yes"/>
      <point x="254" y="54"/>
      <point x="237" y="86"/>
      <point x="237" y="168" type="curve" smooth="yes"/>
      <point x="237" y="475" type="line"/>
      <point x="352" y="475" type="line"/>
      <point x="352" y="530" type="line"/>
      <point x="237" y="530" type="line"/>
      <point x="237" y="651" type="line"/>
      <point x="186" y="651" type="line"/>
      <point x="159" y="592"/>
      <point x="104" y="543"/>
      <point x="25" y="520" type="curve"/>
      <point x="25" y="475" type="line"/>
    </contour>
  </outline>
</glyph>
<glyph name="v" format="1">
  <advance width="624"/>
  <unicode hex="0076"/>
  <outline>
    <contour>
      <point x="259" y="-10" type="line"/>
      <point x="350" y="-10" type="line"/>
      <point x="537" y="414" type="line" smooth="yes"/>
      <point x="565" y="478"/>
      <point x="588" y="490"/>
      <point x="624" y="490" type="curve"/>
      <point x="624" y="530" type="line"/>
      <point x="403" y="530" type="line"/>
      <point x="403" y="490" type="line"/>
      <point x="453" y="489"/>
      <point x="471" y="476"/>
      <point x="471" y="447" type="curve" smooth="yes"/>
      <point x="471" y="432"/>
      <point x="465" y="414"/>
      <point x="456" y="392" type="curve" smooth="yes"/>
      <point x="349" y="131" type="line"/>
      <point x="345" y="131" type="line"/>
      <point x="250" y="393" type="line" smooth="yes"/>
      <point x="241" y="416"/>
      <point x="233" y="440"/>
      <point x="233" y="457" type="curve" smooth="yes"/>
      <point x="233" y="479"/>
      <point x="239" y="490"/>
      <point x="306" y="490" type="curve"/>
      <point x="306" y="530" type="line"/>
      <point x="7" y="530" type="line"/>
      <point x="7" y="490" type="line"/>
      <point x="53" y="490"/>
      <point x="71" y="478"/>
      <point x="101" y="401" type="curve" smooth="yes"/>
    </contour>
  </outline>
</glyph>
<glyph name="w" format="1">
  <advance width="891"/>
  <unicode hex="0077"/>
  <outline>
    <contour>
      <point x="469" y="651" type="move" name="top"/>
    </contour>
    <contour>
      <point x="313" y="-10" type="line"/>
      <point x="238" y="-10" type="line"/>
      <point x="101" y="401" type="line" smooth="yes"/>
      <point x="80" y="465"/>
      <point x="54" y="487"/>
      <point x="8" y="490" type="curve"/>
      <point x="8" y="530" type="line"/>
      <point x="294" y="530" type="line"/>
      <point x="294" y="490" type="line"/>
      <point x="246" y="489"/>
      <point x="230" y="477"/>
      <point x="230" y="447" type="curve" smooth="yes"/>
      <point x="230" y="433"/>
      <point x="235" y="415"/>
      <point x="241" y="393" type="curve" smooth="yes"/>
      <point x="304" y="159" type="line"/>
      <point x="308" y="159" type="line"/>
      <point x="448" y="530" type="line"/>
      <point x="530" y="530" type="line"/>
      <point x="635" y="159" type="line"/>
      <point x="640" y="159" type="line"/>
      <point x="720" y="366" type="line" smooth="yes"/>
      <point x="733" y="399"/>
      <point x="738" y="424"/>
      <point x="738" y="442" type="curve" smooth="yes"/>
      <point x="738" y="477"/>
      <point x="713" y="490"/>
      <point x="675" y="490" type="curve"/>
      <point x="675" y="530" type="line"/>
      <point x="890" y="530" type="line"/>
      <point x="890" y="490" type="line"/>
      <point x="843" y="490"/>
      <point x="832" y="480"/>
      <point x="775" y="336" type="curve" smooth="yes"/>
      <point x="637" y="-10" type="line"/>
      <point x="558" y="-10" type="line"/>
      <point x="452" y="345" type="line"/>
      <point x="448" y="345" type="line"/>
    </contour>
  </outline>
</glyph>
<glyph name="y" format="1">
  <advance width="646"/>
  <unicode hex="0079"/>
  <outline>
    <contour>
      <point x="370" y="651" type="move" name="top"/>
    </contour>
    <contour>
      <point x="516" y="323" type="line" smooth="yes"/>
      <point x="586" y="471"/>
      <point x="602" y="490"/>
      <point x="654" y="490" type="curve"/>
      <point x="654" y="530" type="line"/>
      <point x="413" y="530" type="line"/>
      <point x="413" y="490" type="line"/>
      <point x="471" y="490"/>
      <point x="486" y="481"/>
      <point x="486" y="446" type="curve" smooth="yes"/>
      <point x="486" y="423"/>
      <point x="478" y="401"/>
      <point x="442" y="318" type="curve" smooth="yes"/>
      <point x="356" y="123" type="line"/>
      <point x="352" y="123" type="line"/>
      <point x="250" y="415" type="line" smooth="yes"/>
      <point x="245" y="430"/>
      <point x="241" y="445"/>
      <point x="241" y="455" type="curve" smooth="yes"/>
      <point x="241" y="481"/>
      <point x="259" y="490"/>
      <point x="311" y="490" type="curve"/>
      <point x="311" y="530" type="line"/>
      <point x="8" y="530" type="line"/>
      <point x="8" y="490" type="line"/>
      <point x="60" y="488"/>
      <point x="71" y="478"/>
      <point x="102" y="401" type="curve" smooth="yes"/>
      <point x="279" y="-37" type="line"/>
      <point x="252" y="-89" type="line" smooth="yes"/>
      <point x="235" y="-121"/>
      <point x="198" y="-140"/>
      <point x="137" y="-145" type="curve" smooth="yes"/>
      <point x="85" y="-149"/>
      <point x="63" y="-168"/>
      <point x="63" y="-201" type="curve" smooth="yes"/>
      <point x="63" y="-237"/>
      <point x="92" y="-260"/>
      <point x="136" y="-260" type="curve" smooth="yes"/>
      <point x="194" y="-260"/>
      <point x="259" y="-216"/>
      <point x="287" y="-157" type="curve" smooth="yes"/>
    </contour>
  </outline>
</glyph>
<glyph name="z" format="1">
  <advance width="568"/>
  <unicode hex="007A"/>
  <outline>
    <contour>
      <point x="300" y="651" type="move" name="top"/>
    </contour>
    <contour>
      <point x="304" y="0" type="move" name="bottom"/>
    </contour>
    <contour>
      <point x="532" y="170" type="line"/>
      <point x="493" y="170" type="line"/>
      <point x="468" y="72"/>
      <point x="438" y="54"/>
      <point x="298" y="54" type="curve" smooth="yes"/>
      <point x="210" y="54" type="line"/>
      <point x="518" y="507" type="line"/>
      <point x="518" y="530" type="line"/>
      <point x="67" y="530" type="line"/>
      <point x="55" y="374" type="line"/>
      <point x="94" y="374" type="line"/>
      <point x="110" y="462"/>
      <point x="133" y="477"/>
      <point x="247" y="477" type="curve" smooth="yes"/>
      <point x="339" y="477" type="line"/>
      <point x="26" y="23" type="line"/>
      <point x="26" y="0" type="line"/>
      <point x="520" y="0" type="line"/>
    </contour>
  </outline>
</glyph>
<glyph name="asciitilde" format="1">
  <advance width="562"/>
  <unicode hex="007E"/>
  <outline>
    <contour>
      <point x="119" y="249" type="line"/>
      <point x="130" y="282"/>
      <point x="139" y="289"/>
      <point x="167" y="289" type="curve" smooth="yes"/>
      <point x="239" y="289"/>
      <point x="306" y="241"/>
      <point x="369" y="241" type="curve" smooth="yes"/>
      <point x="433" y="241"/>
      <point x="477" y="291"/>
      <point x="492" y="379" type="curve"/>
      <point x="447" y="379" type="line"/>
      <point x="437" y="348"/>
      <point x="423" y="337"/>
      <point x="395" y="337" type="curve" smooth="yes"/>
      <point x="336" y="337"/>
      <point x="254" y="383"/>
      <point x="196" y="383" type="curve" smooth="yes"/>
      <point x="134" y="383"/>
      <point x="86" y="331"/>
      <point x="73" y="249" type="curve"/>
    </contour>
  </outline>
</glyph>
<glyph name="cent" format="1">
  <advance width="579"/>
  <unicode hex="00A2"/>
  <outline>
    <contour>
      <point x="285" y="683" type="line"/>
      <point x="285" y="537" type="line"/>
      <point x="139" y="518"/>
      <point x="44" y="414"/>
      <point x="44" y="261" type="curve" smooth="yes"/>
      <point x="44" y="103"/>
      <point x="142" y="-4"/>
      <point x="285" y="-10" type="curve"/>
      <point x="285" y="-147" type="line"/>
      <point x="349" y="-147" type="line"/>
      <point x="349" y="-6" type="line"/>
      <point x="423" y="4"/>
      <point x="492" y="36"/>
      <point x="533" y="83" type="curve"/>
      <point x="507" y="121" type="line"/>
      <point x="459" y="82"/>
      <point x="410" y="63"/>
      <point x="349" y="62" type="curve"/>
      <point x="349" y="476" type="line"/>
      <point x="370" y="467"/>
      <point x="386" y="446"/>
      <point x="405" y="411" type="curve"/>
      <point x="431" y="369"/>
      <point x="455" y="359"/>
      <point x="480" y="359" type="curve" smooth="yes"/>
      <point x="523" y="359"/>
      <point x="541" y="390"/>
      <point x="541" y="419" type="curve" smooth="yes"/>
      <point x="541" y="474"/>
      <point x="478" y="536"/>
      <point x="349" y="540" type="curve"/>
      <point x="349" y="683" type="line"/>
    </contour>
    <contour>
      <point x="198" y="276" type="curve" smooth="yes"/>
      <point x="198" y="393"/>
      <point x="227" y="462"/>
      <point x="285" y="479" type="curve"/>
      <point x="285" y="73" type="line"/>
      <point x="228" y="98"/>
      <point x="198" y="167"/>
    </contour>
  </outline>
</glyph>
<glyph name="yen" format="1">
  <advance width="851"/>
  <unicode hex="00A5"/>
  <outline>
    <contour>
      <point x="661" y="235" type="line"/>
      <point x="497" y="235" type="line"/>
      <point x="497" y="299" type="line"/>
      <point x="661" y="299" type="line"/>
      <point x="661" y="364" type="line"/>
      <point x="538" y="364" type="line"/>
      <point x="657" y="568" type="line" smooth="yes"/>
      <point x="740" y="710"/>
      <point x="766" y="730"/>
      <point x="825" y="730" type="curve"/>
      <point x="825" y="770" type="line"/>
      <point x="574" y="770" type="line"/>
      <point x="574" y="730" type="line"/>
      <point x="628" y="730"/>
      <point x="642" y="720"/>
      <point x="642" y="698" type="curve" smooth="yes"/>
      <point x="642" y="674"/>
      <point x="633" y="653"/>
      <point x="580" y="563" type="curve" smooth="yes"/>
      <point x="462" y="363" type="line"/>
      <point x="458" y="363" type="line"/>
      <point x="315" y="638" type="line" smooth="yes"/>
      <point x="301" y="665"/>
      <point x="294" y="684"/>
      <point x="294" y="698" type="curve" smooth="yes"/>
      <point x="294" y="721"/>
      <point x="309" y="730"/>
      <point x="371" y="730" type="curve"/>
      <point x="371" y="770" type="line"/>
      <point x="28" y="770" type="line"/>
      <point x="28" y="730" type="line"/>
      <point x="86" y="730"/>
      <point x="103" y="717"/>
      <point x="143" y="646" type="curve" smooth="yes"/>
      <point x="304" y="364" type="line"/>
      <point x="185" y="364" type="line"/>
      <point x="185" y="299" type="line"/>
      <point x="350" y="299" type="line"/>
      <point x="350" y="235" type="line"/>
      <point x="185" y="235" type="line"/>
      <point x="185" y="170" type="line"/>
      <point x="350" y="170" type="line"/>
      <point x="349" y="64"/>
      <point x="338" y="41"/>
      <point x="245" y="38" type="curve"/>
      <point x="245" y="0" type="line"/>
      <point x="605" y="0" type="line"/>
      <point x="605" y="38" type="line"/>
      <point x="512" y="41"/>
      <point x="498" y="61"/>
      <point x="497" y="170" type="curve"/>
      <point x="661" y="170" type="line"/>
    </contour>
  </outline>
</glyph>
<glyph name="section" format="1">
  <advance width="560"/>
  <unicode hex="00A7"/>
  <outline>
    <contour>
      <point x="208" y="307" type="line" smooth="yes"/>
      <point x="170" y="328"/>
      <point x="143" y="359"/>
      <point x="143" y="392" type="curve" smooth="yes"/>
      <point x="143" y="417"/>
      <point x="159" y="443"/>
      <point x="200" y="466" type="curve"/>
      <point x="340" y="387" type="line" smooth="yes"/>
      <point x="387" y="361"/>
      <point x="424" y="319"/>
      <point x="425" y="279" type="curve" smooth="yes"/>
      <point x="425" y="255"/>
      <point x="411" y="232"/>
      <point x="378" y="211" type="curve"/>
    </contour>
    <contour>
      <point x="281" y="107" type="line" smooth="yes"/>
      <point x="389" y="46"/>
      <point x="410" y="23"/>
      <point x="410" y="-19" type="curve" smooth="yes"/>
      <point x="410" y="-82"/>
      <point x="361" y="-119"/>
      <point x="276" y="-119" type="curve" smooth="yes"/>
      <point x="204" y="-119"/>
      <point x="139" y="-93"/>
      <point x="139" y="-64" type="curve" smooth="yes"/>
      <point x="139" y="-40"/>
      <point x="185" y="-22"/>
      <point x="185" y="22" type="curve" smooth="yes"/>
      <point x="185" y="58"/>
      <point x="153" y="88"/>
      <point x="114" y="88" type="curve" smooth="yes"/>
      <point x="73" y="88"/>
      <point x="47" y="54"/>
      <point x="47" y="0" type="curve" smooth="yes"/>
      <point x="47" y="-102"/>
      <point x="141" y="-174"/>
      <point x="272" y="-174" type="curve" smooth="yes"/>
      <point x="409" y="-174"/>
      <point x="503" y="-96"/>
      <point x="503" y="16" type="curve" smooth="yes"/>
      <point x="503" y="77"/>
      <point x="476" y="134"/>
      <point x="427" y="177" type="curve"/>
      <point x="488" y="219"/>
      <point x="513" y="264"/>
      <point x="513" y="328" type="curve" smooth="yes"/>
      <point x="513" y="400"/>
      <point x="482" y="453"/>
      <point x="392" y="508" type="curve" smooth="yes"/>
      <point x="287" y="572" type="line" smooth="yes"/>
      <point x="178" y="638"/>
      <point x="167" y="660"/>
      <point x="167" y="691" type="curve" smooth="yes"/>
      <point x="167" y="750"/>
      <point x="206" y="780"/>
      <point x="275" y="780" type="curve" smooth="yes"/>
      <point x="332" y="780"/>
      <point x="374" y="760"/>
      <point x="374" y="734" type="curve" smooth="yes"/>
      <point x="374" y="713"/>
      <point x="344" y="708"/>
      <point x="344" y="671" type="curve" smooth="yes"/>
      <point x="344" y="635"/>
      <point x="372" y="610"/>
      <point x="410" y="610" type="curve" smooth="yes"/>
      <point x="451" y="610"/>
      <point x="476" y="639"/>
      <point x="476" y="685" type="curve" smooth="yes"/>
      <point x="476" y="770"/>
      <point x="393" y="830"/>
      <point x="275" y="830" type="curve" smooth="yes"/>
      <point x="150" y="830"/>
      <point x="69" y="763"/>
      <point x="69" y="660" type="curve" smooth="yes"/>
      <point x="69" y="597"/>
      <point x="100" y="535"/>
      <point x="149" y="499" type="curve"/>
      <point x="84" y="468"/>
      <point x="50" y="417"/>
      <point x="50" y="346" type="curve" smooth="yes"/>
      <point x="50" y="269"/>
      <point x="90" y="215"/>
      <point x="173" y="168" type="curve" smooth="yes"/>
    </contour>
  </outline>
</glyph>
<glyph name="uni00AD" format="1">
  <advance width="467"/>
  <unicode hex="00AD"/>
  <outline>
    <contour>
      <point x="401" y="242" type="line"/>
      <point x="401" y="337" type="line"/>
      <point x="66" y="337" type="line"/>
      <point x="66" y="242" type="line"/>
    </contour>
  </outline>
</glyph>
<glyph name="registered" format="1">
  <advance width="902"/>
  <unicode hex="00AE"/>
  <outline>
    <contour>
      <point x="857" y="386" type="curve" smooth="yes"/>
      <point x="857" y="605"/>
      <point x="675" y="780"/>
      <point x="448" y="780" type="curve" smooth="yes"/>
      <point x="224" y="780"/>
      <point x="45" y="602"/>
      <point x="45" y="385" type="curve" smooth="yes"/>
      <point x="45" y="168"/>
      <point x="225" y="-10"/>
      <point x="449" y="-10" type="curve" smooth="yes"/>
      <point x="675" y="-10"/>
      <point x="857" y="166"/>
    </contour>
    <contour>
      <point x="797" y="386" type="curve" smooth="yes"/>
      <point x="797" y="200"/>
      <point x="640" y="48"/>
      <point x="449" y="48" type="curve" smooth="yes"/>
      <point x="257" y="48"/>
      <point x="105" y="200"/>
      <point x="105" y="385" type="curve" smooth="yes"/>
      <point x="105" y="570"/>
      <point x="256" y="722"/>
      <point x="448" y="722" type="curve" smooth="yes"/>
      <point x="640" y="722"/>
      <point x="797" y="573"/>
    </contour>
    <contour>
      <point x="616" y="507" type="curve" smooth="yes"/>
      <point x="616" y="574"/>
      <point x="548" y="615"/>
      <point x="430" y="615" type="curve" smooth="yes"/>
      <point x="246" y="615" type="line"/>
      <point x="246" y="585" type="line"/>
      <point x="283" y="583"/>
      <point x="289" y="573"/>
      <point x="289" y="522" type="curve" smooth="yes"/>
      <point x="289" y="273" type="line" smooth="yes"/>
      <point x="289" y="222"/>
      <point x="282" y="212"/>
      <point x="240" y="210" type="curve"/>
      <point x="240" y="183" type="line"/>
      <point x="448" y="183" type="line"/>
      <point x="448" y="210" type="line"/>
      <point x="385" y="210"/>
      <point x="377" y="222"/>
      <point x="377" y="276" type="curve" smooth="yes"/>
      <point x="377" y="383" type="line"/>
      <point x="393" y="383"/>
      <point x="405" y="377"/>
      <point x="425" y="354" type="curve" smooth="yes"/>
      <point x="570" y="183" type="line"/>
      <point x="694" y="183" type="line"/>
      <point x="694" y="210" type="line"/>
      <point x="662" y="215"/>
      <point x="643" y="225"/>
      <point x="623" y="248" type="curve" smooth="yes"/>
      <point x="493" y="393" type="line"/>
      <point x="579" y="405"/>
      <point x="616" y="447"/>
    </contour>
    <contour>
      <point x="377" y="571" type="line" smooth="yes"/>
      <point x="377" y="576"/>
      <point x="379" y="580"/>
      <point x="387" y="580" type="curve" smooth="yes"/>
      <point x="430" y="580" type="line" smooth="yes"/>
      <point x="489" y="580"/>
      <point x="514" y="559"/>
      <point x="514" y="504" type="curve" smooth="yes"/>
      <point x="514" y="442"/>
      <point x="482" y="416"/>
      <point x="414" y="416" type="curve" smooth="yes"/>
      <point x="377" y="416" type="line"/>
    </contour>
  </outline>
</glyph>
<glyph name="degree" format="1">
  <advance width="334"/>
  <unicode hex="00B0"/>
  <outline>
    <contour>
      <point x="41" y="660" type="curve" smooth="yes"/>
      <point x="41" y="594"/>
      <point x="98" y="540"/>
      <point x="167" y="540" type="curve" smooth="yes"/>
      <point x="236" y="540"/>
      <point x="293" y="594"/>
      <point x="293" y="660" type="curve" smooth="yes"/>
      <point x="293" y="726"/>
      <point x="236" y="780"/>
      <point x="167" y="780" type="curve" smooth="yes"/>
      <point x="98" y="780"/>
      <point x="41" y="726"/>
    </contour>
    <contour>
      <point x="87" y="660" type="curve" smooth="yes"/>
      <point x="87" y="701"/>
      <point x="124" y="734"/>
      <point x="167" y="734" type="curve" smooth="yes"/>
      <point x="210" y="734"/>
      <point x="245" y="701"/>
      <point x="245" y="660" type="curve" smooth="yes"/>
      <point x="245" y="619"/>
      <point x="210" y="585"/>
      <point x="167" y="585" type="curve" smooth="yes"/>
      <point x="124" y="585"/>
      <point x="87" y="619"/>
    </contour>
  </outline>
</glyph>
<glyph name="plusminus" format="1">
  <advance width="628"/>
  <unicode hex="00B1"/>
  <outline>
    <contour>
      <point x="348" y="227" type="line"/>
      <point x="348" y="436" type="line"/>
      <point x="560" y="436" type="line"/>
      <point x="560" y="500" type="line"/>
      <point x="348" y="500" type="line"/>
      <point x="348" y="709" type="line"/>
      <point x="280" y="709" type="line"/>
      <point x="280" y="500" type="line"/>
      <point x="68" y="500" type="line"/>
      <point x="68" y="436" type="line"/>
      <point x="280" y="436" type="line"/>
      <point x="280" y="227" type="line"/>
    </contour>
    <contour>
      <point x="560" y="152" type="line"/>
      <point x="68" y="152" type="line"/>
      <point x="68" y="88" type="line"/>
      <point x="560" y="88" type="line"/>
    </contour>
  </outline>
</glyph>
<glyph name="twosuperior" format="1">
  <advance width="284"/>
  <unicode hex="00B2"/>
  <outline>
    <contour>
      <point x="105" y="516" type="line"/>
      <point x="184" y="572"/>
      <point x="248" y="630"/>
      <point x="248" y="694" type="curve" smooth="yes"/>
      <point x="248" y="744"/>
      <point x="202" y="780"/>
      <point x="137" y="780" type="curve" smooth="yes"/>
      <point x="74" y="780"/>
      <point x="28" y="745"/>
      <point x="28" y="697" type="curve" smooth="yes"/>
      <point x="28" y="662"/>
      <point x="53" y="637"/>
      <point x="86" y="637" type="curve" smooth="yes"/>
      <point x="107" y="637"/>
      <point x="122" y="648"/>
      <point x="124" y="663" type="curve"/>
      <point x="103" y="663"/>
      <point x="88" y="680"/>
      <point x="88" y="706" type="curve" smooth="yes"/>
      <point x="88" y="729"/>
      <point x="106" y="747"/>
      <point x="129" y="747" type="curve" smooth="yes"/>
      <point x="159" y="747"/>
      <point x="177" y="727"/>
      <point x="177" y="694" type="curve" smooth="yes"/>
      <point x="177" y="639"/>
      <point x="149" y="592"/>
      <point x="29" y="486" type="curve"/>
      <point x="29" y="468" type="line"/>
      <point x="240" y="468" type="line"/>
      <point x="255" y="553" type="line"/>
      <point x="229" y="553" type="line"/>
      <point x="219" y="520"/>
      <point x="208" y="512"/>
      <point x="184" y="512" type="curve" smooth="yes"/>
      <point x="105" y="512" type="line"/>
    </contour>
  </outline>
</glyph>
<glyph name="threesuperior" format="1">
  <advance width="283"/>
  <unicode hex="00B3"/>
  <outline>
    <contour>
      <point x="180" y="556" type="curve" smooth="yes"/>
      <point x="180" y="593"/>
      <point x="164" y="616"/>
      <point x="137" y="616" type="curve"/>
      <point x="127" y="612"/>
      <point x="116" y="609"/>
      <point x="108" y="609" type="curve" smooth="yes"/>
      <point x="94" y="609"/>
      <point x="85" y="618"/>
      <point x="85" y="630" type="curve" smooth="yes"/>
      <point x="85" y="642"/>
      <point x="94" y="649"/>
      <point x="107" y="649" type="curve" smooth="yes"/>
      <point x="115" y="649"/>
      <point x="124" y="647"/>
      <point x="134" y="644" type="curve"/>
      <point x="157" y="644"/>
      <point x="173" y="670"/>
      <point x="173" y="705" type="curve" smooth="yes"/>
      <point x="173" y="734"/>
      <point x="161" y="748"/>
      <point x="135" y="748" type="curve" smooth="yes"/>
      <point x="111" y="748"/>
      <point x="97" y="737"/>
      <point x="97" y="719" type="curve" smooth="yes"/>
      <point x="97" y="705"/>
      <point x="106" y="696"/>
      <point x="121" y="696" type="curve"/>
      <point x="119" y="685"/>
      <point x="103" y="676"/>
      <point x="86" y="676" type="curve" smooth="yes"/>
      <point x="60" y="676"/>
      <point x="39" y="697"/>
      <point x="39" y="723" type="curve" smooth="yes"/>
      <point x="39" y="758"/>
      <point x="76" y="780"/>
      <point x="135" y="780" type="curve" smooth="yes"/>
      <point x="201" y="780"/>
      <point x="244" y="752"/>
      <point x="244" y="708" type="curve" smooth="yes"/>
      <point x="244" y="674"/>
      <point x="217" y="644"/>
      <point x="180" y="636" type="curve"/>
      <point x="180" y="632" type="line"/>
      <point x="225" y="621"/>
      <point x="254" y="589"/>
      <point x="254" y="551" type="curve" smooth="yes"/>
      <point x="254" y="501"/>
      <point x="203" y="464"/>
      <point x="134" y="464" type="curve" smooth="yes"/>
      <point x="72" y="464"/>
      <point x="27" y="494"/>
      <point x="27" y="535" type="curve" smooth="yes"/>
      <point x="27" y="564"/>
      <point x="50" y="586"/>
      <point x="79" y="586" type="curve" smooth="yes"/>
      <point x="98" y="586"/>
      <point x="114" y="577"/>
      <point x="118" y="563" type="curve"/>
      <point x="103" y="563"/>
      <point x="91" y="548"/>
      <point x="91" y="531" type="curve" smooth="yes"/>
      <point x="91" y="511"/>
      <point x="107" y="498"/>
      <point x="132" y="498" type="curve" smooth="yes"/>
      <point x="164" y="498"/>
      <point x="180" y="518"/>
    </contour>
  </outline>
</glyph>
<glyph name="paragraph" format="1">
  <advance width="659"/>
  <unicode hex="00B6"/>
  <outline>
    <contour>
      <point x="512" y="568" type="line" smooth="yes"/>
      <point x="512" y="640"/>
      <point x="516" y="670"/>
      <point x="524" y="691" type="curve" smooth="yes"/>
      <point x="534" y="719"/>
      <point x="553" y="727"/>
      <point x="612" y="727" type="curve"/>
      <point x="612" y="770" type="line"/>
      <point x="322" y="770" type="line" smooth="yes"/>
      <point x="135" y="770"/>
      <point x="33" y="695"/>
      <point x="33" y="559" type="curve" smooth="yes"/>
      <point x="33" y="429"/>
      <point x="108" y="352"/>
      <point x="235" y="352" type="curve" smooth="yes"/>
      <point x="251" y="352"/>
      <point x="260" y="353"/>
      <point x="271" y="353" type="curve"/>
      <point x="271" y="68" type="line" smooth="yes"/>
      <point x="271" y="3"/>
      <point x="267" y="-66"/>
      <point x="261" y="-83" type="curve" smooth="yes"/>
      <point x="251" y="-111"/>
      <point x="220" y="-122"/>
      <point x="146" y="-122" type="curve"/>
      <point x="146" y="-165" type="line"/>
      <point x="368" y="-165" type="line"/>
      <point x="368" y="716" type="line"/>
      <point x="416" y="716" type="line"/>
      <point x="416" y="-165" type="line"/>
      <point x="612" y="-165" type="line"/>
      <point x="612" y="-122" type="line"/>
      <point x="558" y="-122"/>
      <point x="534" y="-112"/>
      <point x="526" y="-86" type="curve" smooth="yes"/>
      <point x="517" y="-65"/>
      <point x="512" y="-7"/>
      <point x="512" y="68" type="curve" smooth="yes"/>
    </contour>
  </outline>
</glyph>
<glyph name="cedilla" format="1">
  <advance width="243"/>
  <unicode hex="00B8"/>
  <outline>
    <contour>
      <point x="128" y="0" type="move" name="_bottom"/>
    </contour>
    <contour>
      <point x="166" y="12" type="line"/>
      <point x="101" y="12" type="line"/>
      <point x="46" y="-112" type="line"/>
      <point x="48" y="-115" type="line"/>
      <point x="57" y="-114"/>
      <point x="76" y="-113"/>
      <point x="87" y="-113" type="curve" smooth="yes"/>
      <point x="136" y="-113"/>
      <point x="163" y="-132"/>
      <point x="163" y="-167" type="curve" smooth="yes"/>
      <point x="163" y="-194"/>
      <point x="146" y="-212"/>
      <point x="119" y="-212" type="curve" smooth="yes"/>
      <point x="97" y="-212"/>
      <point x="86" y="-202"/>
      <point x="73" y="-170" type="curve" smooth="yes"/>
      <point x="61" y="-142"/>
      <point x="51" y="-133"/>
      <point x="32" y="-133" type="curve" smooth="yes"/>
      <point x="10" y="-133"/>
      <point x="-4" y="-148"/>
      <point x="-4" y="-174" type="curve" smooth="yes"/>
      <point x="-4" y="-224"/>
      <point x="51" y="-260"/>
      <point x="127" y="-260" type="curve" smooth="yes"/>
      <point x="210" y="-260"/>
      <point x="269" y="-217"/>
      <point x="269" y="-155" type="curve" smooth="yes"/>
      <point x="269" y="-98"/>
      <point x="217" y="-62"/>
      <point x="134" y="-62" type="curve"/>
    </contour>
  </outline>
</glyph>
<glyph name="ordmasculine" format="1">
  <advance width="383"/>
  <unicode hex="00BA"/>
  <outline>
    <contour>
      <point x="190" y="780" type="curve" smooth="yes"/>
      <point x="109" y="780"/>
      <point x="41" y="723"/>
      <point x="41" y="645" type="curve" smooth="yes"/>
      <point x="41" y="565"/>
      <point x="109" y="507"/>
      <point x="190" y="507" type="curve" smooth="yes"/>
      <point x="272" y="507"/>
      <point x="342" y="565"/>
      <point x="342" y="645" type="curve" smooth="yes"/>
      <point x="342" y="723"/>
      <point x="272" y="780"/>
    </contour>
    <contour>
      <point x="190" y="744" type="curve" smooth="yes"/>
      <point x="228" y="744"/>
      <point x="254" y="703"/>
      <point x="254" y="645" type="curve" smooth="yes"/>
      <point x="254" y="584"/>
      <point x="228" y="544"/>
      <point x="190" y="544" type="curve" smooth="yes"/>
      <point x="153" y="544"/>
      <point x="128" y="584"/>
      <point x="128" y="645" type="curve" smooth="yes"/>
      <point x="128" y="703"/>
      <point x="154" y="744"/>
    </contour>
  </outline>
</glyph>
<glyph name="onequarter" format="1">
  <advance width="712"/>
  <unicode hex="00BC"/>
  <outline>
    <contour>
      <point x="679" y="770" type="line"/>
      <point x="608" y="770" type="line"/>
      <point x="28" y="0" type="line"/>
      <point x="108" y="0" type="line"/>
    </contour>
    <component base="onesuperior" xOffset="85"/>
    <component base="fourinferior" xOffset="357"/>
  </outline>
</glyph>
<glyph name="threequarters" format="1">
  <advance width="714"/>
  <unicode hex="00BE"/>
  <outline>
    <contour>
      <point x="685" y="770" type="line"/>
      <point x="614" y="770" type="line"/>
      <point x="34" y="0" type="line"/>
      <point x="114" y="0" type="line"/>
    </contour>
    <component base="fourinferior" xOffset="363"/>
    <component base="threesuperior" xOffset="67"/>
  </outline>
</glyph>
<glyph name="questiondown" format="1">
  <advance width="401"/>
  <unicode hex="00BF"/>
  <outline>
    <contour>
      <point x="216" y="531" type="line"/>
      <point x="216" y="410" type="line"/>
      <point x="108" y="410"/>
      <point x="45" y="347"/>
      <point x="45" y="240" type="curve" smooth="yes"/>
      <point x="45" y="109"/>
      <point x="154" y="-10"/>
      <point x="273" y="-10" type="curve" smooth="yes"/>
      <point x="321" y="-10"/>
      <point x="348" y="11"/>
      <point x="348" y="51" type="curve" smooth="yes"/>
      <point x="348" y="86"/>
      <point x="321" y="110"/>
      <point x="282" y="110" type="curve" smooth="yes"/>
      <point x="259" y="110"/>
      <point x="229" y="99"/>
      <point x="203" y="99" type="curve" smooth="yes"/>
      <point x="153" y="99"/>
      <point x="112" y="147"/>
      <point x="112" y="205" type="curve" smooth="yes"/>
      <point x="112" y="263"/>
      <point x="158" y="294"/>
      <point x="249" y="294" type="curve" smooth="yes"/>
      <point x="284" y="294" type="line"/>
      <point x="284" y="531" type="line"/>
    </contour>
    <contour>
      <point x="330" y="705" type="curve"/>
      <point x="330" y="748"/>
      <point x="297" y="780"/>
      <point x="254" y="780" type="curve" smooth="yes"/>
      <point x="211" y="780"/>
      <point x="178" y="747"/>
      <point x="178" y="705" type="curve" smooth="yes"/>
      <point x="178" y="663"/>
      <point x="212" y="629"/>
      <point x="254" y="629" type="curve" smooth="yes"/>
      <point x="297" y="629"/>
      <point x="330" y="663"/>
    </contour>
  </outline>
</glyph>
<glyph name="Eth" format="1">
  <advance width="920"/>
  <unicode hex="00D0"/>
  <outline>
    <contour>
      <point x="54" y="376" type="line"/>
      <point x="54" y="436" type="line"/>
      <point x="421" y="436" type="line"/>
      <point x="421" y="376" type="line"/>
    </contour>
    <component base="D" xOffset="1"/>
  </outline>
</glyph>
<glyph name="multiply" format="1">
  <advance width="524"/>
  <unicode hex="00D7"/>
  <outline>
    <contour>
      <point x="471" y="169" type="line"/>
      <point x="309" y="331" type="line"/>
      <point x="473" y="495" type="line"/>
      <point x="427" y="541" type="line"/>
      <point x="263" y="377" type="line"/>
      <point x="101" y="539" type="line"/>
      <point x="53" y="491" type="line"/>
      <point x="215" y="329" type="line"/>
      <point x="51" y="165" type="line"/>
      <point x="97" y="119" type="line"/>
      <point x="261" y="283" type="line"/>
      <point x="423" y="121" type="line"/>
    </contour>
  </outline>
</glyph>
<glyph name="Oslash" format="1">
  <advance width="943"/>
  <unicode hex="00D8"/>
  <outline>
    <contour>
      <point x="891" y="830" type="line"/>
      <point x="802" y="830" type="line"/>
      <point x="47" y="-81" type="line"/>
      <point x="135" y="-81" type="line"/>
    </contour>
    <component base="O"/>
  </outline>
</glyph>
<glyph name="Thorn" format="1">
  <advance width="734"/>
  <unicode hex="00DE"/>
  <outline>
    <contour>
      <point x="294" y="618" type="line" smooth="yes"/>
      <point x="294" y="713"/>
      <point x="302" y="732"/>
      <point x="429" y="732" type="curve"/>
      <point x="429" y="770" type="line"/>
      <point x="32" y="770" type="line"/>
      <point x="32" y="729" type="line"/>
      <point x="130" y="726"/>
      <point x="147" y="709"/>
      <point x="147" y="615" type="curve" smooth="yes"/>
      <point x="147" y="152" type="line" smooth="yes"/>
      <point x="147" y="58"/>
      <point x="130" y="44"/>
      <point x="32" y="41" type="curve"/>
      <point x="32" y="0" type="line"/>
      <point x="429" y="0" type="line"/>
      <point x="429" y="41" type="line"/>
      <point x="302" y="41"/>
      <point x="294" y="57"/>
      <point x="294" y="147" type="curve" smooth="yes"/>
      <point x="294" y="166" type="line"/>
      <point x="379" y="166" type="line" smooth="yes"/>
      <point x="617" y="166"/>
      <point x="707" y="244"/>
      <point x="707" y="391" type="curve" smooth="yes"/>
      <point x="707" y="515"/>
      <point x="594" y="601"/>
      <point x="399" y="601" type="curve" smooth="yes"/>
      <point x="294" y="601" type="line"/>
    </contour>
    <contour>
      <point x="294" y="527" type="line" smooth="yes"/>
      <point x="294" y="537"/>
      <point x="301" y="544"/>
      <point x="312" y="544" type="curve" smooth="yes"/>
      <point x="399" y="544" type="line" smooth="yes"/>
      <point x="487" y="544"/>
      <point x="540" y="490"/>
      <point x="540" y="391" type="curve" smooth="yes"/>
      <point x="540" y="274"/>
      <point x="480" y="226"/>
      <point x="359" y="226" type="curve" smooth="yes"/>
      <point x="294" y="226" type="line"/>
    </contour>
  </outline>
</glyph>
<glyph name="ae" format="1">
  <advance width="889"/>
  <unicode hex="00E6"/>
  <outline>
    <contour>
      <point x="435" y="651" type="move" name="top"/>
    </contour>
    <contour>
      <point x="817" y="128" type="line"/>
      <point x="753" y="75"/>
      <point x="707" y="55"/>
      <point x="650" y="55" type="curve" smooth="yes"/>
      <point x="545" y="55"/>
      <point x="488" y="127"/>
      <point x="488" y="260" type="curve" smooth="yes"/>
      <point x="488" y="279"/>
      <point x="489" y="293"/>
      <point x="492" y="300" type="curve"/>
      <point x="821" y="300" type="line" smooth="yes"/>
      <point x="852" y="300"/>
      <point x="853" y="301"/>
      <point x="853" y="317" type="curve" smooth="yes"/>
      <point x="853" y="459"/>
      <point x="772" y="540"/>
      <point x="630" y="540" type="curve" smooth="yes"/>
      <point x="557" y="540"/>
      <point x="491" y="519"/>
      <point x="448" y="482" type="curve"/>
      <point x="416" y="521"/>
      <point x="355" y="540"/>
      <point x="262" y="540" type="curve" smooth="yes"/>
      <point x="130" y="540"/>
      <point x="59" y="503"/>
      <point x="59" y="433" type="curve" smooth="yes"/>
      <point x="59" y="394"/>
      <point x="82" y="371"/>
      <point x="120" y="371" type="curve" smooth="yes"/>
      <point x="153" y="371"/>
      <point x="173" y="387"/>
      <point x="189" y="427" type="curve" smooth="yes"/>
      <point x="211" y="479"/>
      <point x="224" y="491"/>
      <point x="262" y="491" type="curve" smooth="yes"/>
      <point x="318" y="491"/>
      <point x="344" y="456"/>
      <point x="344" y="380" type="curve" smooth="yes"/>
      <point x="344" y="338" type="line"/>
      <point x="198" y="276" type="line" smooth="yes"/>
      <point x="78" y="225"/>
      <point x="34" y="181"/>
      <point x="34" y="113" type="curve" smooth="yes"/>
      <point x="34" y="37"/>
      <point x="87" y="-9"/>
      <point x="175" y="-9" type="curve" smooth="yes"/>
      <point x="262" y="-9"/>
      <point x="334" y="37"/>
      <point x="371" y="117" type="curve"/>
      <point x="419" y="33"/>
      <point x="500" y="-10"/>
      <point x="614" y="-10" type="curve" smooth="yes"/>
      <point x="708" y="-10"/>
      <point x="777" y="21"/>
      <point x="845" y="93" type="curve"/>
    </contour>
    <contour>
      <point x="344" y="197" type="line" smooth="yes"/>
      <point x="344" y="133"/>
      <point x="299" y="84"/>
      <point x="241" y="84" type="curve" smooth="yes"/>
      <point x="201" y="84"/>
      <point x="175" y="107"/>
      <point x="175" y="143" type="curve" smooth="yes"/>
      <point x="175" y="189"/>
      <point x="219" y="226"/>
      <point x="344" y="286" type="curve"/>
    </contour>
    <contour>
      <point x="499" y="356" type="line"/>
      <point x="518" y="434"/>
      <point x="565" y="482"/>
      <point x="623" y="482" type="curve" smooth="yes"/>
      <point x="677" y="482"/>
      <point x="714" y="443"/>
      <point x="714" y="385" type="curve" smooth="yes"/>
      <point x="714" y="359"/>
      <point x="707" y="356"/>
      <point x="652" y="356" type="curve" smooth="yes"/>
    </contour>
  </outline>
</glyph>
<glyph name="divide" format="1">
  <advance width="585"/>
  <unicode hex="00F7"/>
  <outline>
    <contour>
      <point x="539" y="370" type="line"/>
      <point x="47" y="370" type="line"/>
      <point x="47" y="306" type="line"/>
      <point x="539" y="306" type="line"/>
    </contour>
    <contour>
      <point x="220" y="521" type="curve" smooth="yes"/>
      <point x="220" y="480"/>
      <point x="253" y="447"/>
      <point x="295" y="447" type="curve" smooth="yes"/>
      <point x="339" y="447"/>
      <point x="372" y="480"/>
      <point x="372" y="521" type="curve" smooth="yes"/>
      <point x="372" y="564"/>
      <point x="339" y="598"/>
      <point x="295" y="598" type="curve" smooth="yes"/>
      <point x="253" y="598"/>
      <point x="220" y="564"/>
    </contour>
    <contour>
      <point x="220" y="151" type="curve" smooth="yes"/>
      <point x="220" y="110"/>
      <point x="253" y="77"/>
      <point x="295" y="77" type="curve" smooth="yes"/>
      <point x="339" y="77"/>
      <point x="372" y="110"/>
      <point x="372" y="151" type="curve" smooth="yes"/>
      <point x="372" y="194"/>
      <point x="339" y="228"/>
      <point x="295" y="228" type="curve" smooth="yes"/>
      <point x="253" y="228"/>
      <point x="220" y="194"/>
    </contour>
  </outline>
</glyph>
<glyph name="hbar" format="1">
  <advance width="714"/>
  <unicode hex="0127"/>
  <outline>
    <contour>
      <point x="313" y="601" type="line"/>
      <point x="313" y="651" type="line"/>
      <point x="20" y="651" type="line"/>
      <point x="20" y="601" type="line"/>
    </contour>
    <component base="h"/>
  </outline>
</glyph>
<glyph name="dotlessi" format="1">
  <advance width="361"/>
  <unicode hex="0131"/>
  <outline>
    <contour>
      <point x="188" y="651" type="move" name="top"/>
    </contour>
    <contour>
      <point x="257" y="540" type="line"/>
      <point x="25" y="502" type="line"/>
      <point x="25" y="468" type="line"/>
      <point x="86" y="468"/>
      <point x="104" y="460"/>
      <point x="111" y="427" type="curve" smooth="yes"/>
      <point x="115" y="409"/>
      <point x="118" y="357"/>
      <point x="118" y="280" type="curve" smooth="yes"/>
      <point x="118" y="157" type="line" smooth="yes"/>
      <point x="118" y="63"/>
      <point x="104" y="44"/>
      <point x="29" y="40" type="curve"/>
      <point x="29" y="0" type="line"/>
      <point x="344" y="0" type="line"/>
      <point x="344" y="40" type="line"/>
      <point x="267" y="43"/>
      <point x="257" y="58"/>
      <point x="257" y="164" type="curve" smooth="yes"/>
    </contour>
  </outline>
</glyph>
<glyph name="kgreenlandic" format="1">
  <advance width="675"/>
  <unicode hex="0138"/>
  <outline>
    <contour>
      <point x="369" y="0" type="line"/>
      <point x="680" y="0" type="line"/>
      <point x="680" y="40" type="line"/>
      <point x="636" y="40"/>
      <point x="610" y="49"/>
      <point x="577" y="96" type="curve" smooth="yes"/>
      <point x="404" y="341" type="line"/>
      <point x="501" y="432" type="line" smooth="yes"/>
      <point x="547" y="475"/>
      <point x="581" y="490"/>
      <point x="631" y="490" type="curve"/>
      <point x="631" y="530" type="line"/>
      <point x="358" y="530" type="line"/>
      <point x="358" y="490" type="line"/>
      <point x="430" y="490"/>
      <point x="445" y="485"/>
      <point x="445" y="474" type="curve" smooth="yes"/>
      <point x="445" y="462"/>
      <point x="428" y="440"/>
      <point x="349" y="365" type="curve" smooth="yes"/>
      <point x="253" y="274" type="line"/>
      <point x="253" y="540" type="line"/>
      <point x="30" y="502" type="line"/>
      <point x="30" y="465" type="line"/>
      <point x="109" y="465"/>
      <point x="116" y="460"/>
      <point x="116" y="291" type="curve" smooth="yes"/>
      <point x="116" y="157" type="line" smooth="yes"/>
      <point x="116" y="62"/>
      <point x="99" y="40"/>
      <point x="27" y="40" type="curve"/>
      <point x="27" y="0" type="line"/>
      <point x="322" y="0" type="line"/>
      <point x="322" y="40" type="line"/>
      <point x="265" y="40"/>
      <point x="253" y="61"/>
      <point x="253" y="164" type="curve" smooth="yes"/>
      <point x="253" y="203" type="line"/>
      <point x="303" y="251" type="line"/>
      <point x="403" y="98" type="line" smooth="yes"/>
      <point x="414" y="81"/>
      <point x="420" y="69"/>
      <point x="420" y="60" type="curve" smooth="yes"/>
      <point x="420" y="46"/>
      <point x="406" y="40"/>
      <point x="369" y="40" type="curve"/>
    </contour>
  </outline>
</glyph>
<glyph name="lslash" format="1">
  <advance width="357"/>
  <unicode hex="0142"/>
  <outline>
    <contour>
      <point x="321" y="449" type="line"/>
      <point x="321" y="514" type="line"/>
      <point x="37" y="347" type="line"/>
      <point x="37" y="282" type="line"/>
    </contour>
    <component base="l" xOffset="1"/>
  </outline>
</glyph>
<glyph name="Eng" format="1">
  <advance width="940"/>
  <unicode hex="014A"/>
  <outline>
    <contour>
      <point x="804" y="588" type="curve"/>
      <point x="804" y="-10" type="line" smooth="yes"/>
      <point x="804" y="-172"/>
      <point x="721" y="-260"/>
      <point x="578" y="-260" type="curve" smooth="yes"/>
      <point x="481" y="-260"/>
      <point x="416" y="-217"/>
      <point x="416" y="-153" type="curve" smooth="yes"/>
      <point x="416" y="-118"/>
      <point x="435" y="-100"/>
      <point x="467" y="-100" type="curve" smooth="yes"/>
      <point x="492" y="-100"/>
      <point x="503" y="-111"/>
      <point x="524" y="-147" type="curve" smooth="yes"/>
      <point x="550" y="-191"/>
      <point x="566" y="-202"/>
      <point x="596" y="-202" type="curve" smooth="yes"/>
      <point x="672" y="-202"/>
      <point x="718" y="-152"/>
      <point x="725" y="-64" type="curve"/>
      <point x="227" y="631" type="line"/>
      <point x="223" y="631" type="line"/>
      <point x="223" y="191" type="line" smooth="yes"/>
      <point x="223" y="59"/>
      <point x="238" y="43"/>
      <point x="327" y="40" type="curve"/>
      <point x="327" y="0" type="line"/>
      <point x="30" y="0" type="line"/>
      <point x="30" y="40" type="line"/>
      <point x="128" y="43"/>
      <point x="145" y="60"/>
      <point x="145" y="184" type="curve" smooth="yes"/>
      <point x="145" y="586" type="line" smooth="yes"/>
      <point x="145" y="699"/>
      <point x="130" y="726"/>
      <point x="40" y="730" type="curve"/>
      <point x="40" y="770" type="line"/>
      <point x="319" y="770" type="line"/>
      <point x="722" y="192" type="line"/>
      <point x="726" y="192" type="line"/>
      <point x="726" y="579" type="line" smooth="yes"/>
      <point x="726" y="711"/>
      <point x="711" y="727"/>
      <point x="622" y="730" type="curve"/>
      <point x="622" y="770" type="line"/>
      <point x="919" y="770" type="line"/>
      <point x="919" y="730" type="line"/>
      <point x="821" y="727"/>
      <point x="804" y="710"/>
    </contour>
  </outline>
</glyph>
<glyph name="eng" format="1">
  <advance width="700"/>
  <unicode hex="014B"/>
  <outline>
    <contour>
      <point x="257" y="301" type="line" smooth="yes"/>
      <point x="257" y="342"/>
      <point x="267" y="383"/>
      <point x="279" y="407" type="curve" smooth="yes"/>
      <point x="301" y="450"/>
      <point x="331" y="475"/>
      <point x="374" y="475" type="curve" smooth="yes"/>
      <point x="461" y="475"/>
      <point x="490" y="428"/>
      <point x="490" y="292" type="curve" smooth="yes"/>
      <point x="490" y="-78" type="line" smooth="yes"/>
      <point x="490" y="-172"/>
      <point x="465" y="-207"/>
      <point x="416" y="-207" type="curve" smooth="yes"/>
      <point x="344" y="-207"/>
      <point x="359" y="-109"/>
      <point x="284" y="-109" type="curve" smooth="yes"/>
      <point x="256" y="-109"/>
      <point x="230" y="-128"/>
      <point x="230" y="-161" type="curve" smooth="yes"/>
      <point x="230" y="-217"/>
      <point x="292" y="-260"/>
      <point x="394" y="-260" type="curve" smooth="yes"/>
      <point x="545" y="-260"/>
      <point x="629" y="-168"/>
      <point x="629" y="-2" type="curve" smooth="yes"/>
      <point x="629" y="304" type="line" smooth="yes"/>
      <point x="629" y="389"/>
      <point x="609" y="433"/>
      <point x="586" y="464" type="curve" smooth="yes"/>
      <point x="545" y="518"/>
      <point x="497" y="540"/>
      <point x="412" y="540" type="curve" smooth="yes"/>
      <point x="341" y="540"/>
      <point x="279" y="507"/>
      <point x="235" y="452" type="curve"/>
      <point x="231" y="452" type="line"/>
      <point x="218" y="540" type="line"/>
      <point x="25" y="502" type="line"/>
      <point x="25" y="468" type="line"/>
      <point x="86" y="468"/>
      <point x="103" y="461"/>
      <point x="111" y="426" type="curve" smooth="yes"/>
      <point x="115" y="409"/>
      <point x="118" y="359"/>
      <point x="118" y="281" type="curve" smooth="yes"/>
      <point x="118" y="156" type="line" smooth="yes"/>
      <point x="118" y="56"/>
      <point x="107" y="45"/>
      <point x="29" y="40" type="curve"/>
      <point x="29" y="0" type="line"/>
      <point x="344" y="0" type="line"/>
      <point x="344" y="40" type="line"/>
      <point x="264" y="45"/>
      <point x="257" y="55"/>
      <point x="257" y="163" type="curve" smooth="yes"/>
    </contour>
  </outline>
</glyph>
<glyph name="OE" format="1">
  <advance width="1181"/>
  <unicode hex="0152"/>
  <outline>
    <contour>
      <point x="482" y="770" type="line" smooth="yes"/>
      <point x="236" y="770"/>
      <point x="45" y="599"/>
      <point x="45" y="379" type="curve" smooth="yes"/>
      <point x="45" y="168"/>
      <point x="235" y="0"/>
      <point x="478" y="0" type="curve" smooth="yes"/>
      <point x="1130" y="0" type="line"/>
      <point x="1151" y="229" type="line"/>
      <point x="1111" y="229" type="line"/>
      <point x="1082" y="102"/>
      <point x="1039" y="55"/>
      <point x="878" y="55" type="curve" smooth="yes"/>
      <point x="746" y="55"/>
      <point x="704" y="82"/>
      <point x="704" y="169" type="curve" smooth="yes"/>
      <point x="704" y="383" type="line"/>
      <point x="859" y="382"/>
      <point x="892" y="356"/>
      <point x="908" y="255" type="curve"/>
      <point x="949" y="255" type="line"/>
      <point x="949" y="548" type="line"/>
      <point x="908" y="548" type="line"/>
      <point x="897" y="445"/>
      <point x="858" y="423"/>
      <point x="704" y="423" type="curve"/>
      <point x="704" y="700" type="line" smooth="yes"/>
      <point x="704" y="710"/>
      <point x="710" y="717"/>
      <point x="722" y="717" type="curve" smooth="yes"/>
      <point x="855" y="717" type="line" smooth="yes"/>
      <point x="998" y="717"/>
      <point x="1046" y="680"/>
      <point x="1063" y="574" type="curve"/>
      <point x="1105" y="574" type="line"/>
      <point x="1096" y="770" type="line"/>
    </contour>
    <contour>
      <point x="482" y="705" type="curve" smooth="yes"/>
      <point x="536" y="705"/>
      <point x="557" y="684"/>
      <point x="557" y="618" type="curve" smooth="yes"/>
      <point x="557" y="152" type="line" smooth="yes"/>
      <point x="557" y="87"/>
      <point x="537" y="65"/>
      <point x="482" y="65" type="curve" smooth="yes"/>
      <point x="318" y="65"/>
      <point x="219" y="185"/>
      <point x="219" y="376" type="curve" smooth="yes"/>
      <point x="219" y="582"/>
      <point x="318" y="705"/>
    </contour>
  </outline>
</glyph>
<glyph name="Tbar" format="1">
  <advance width="827"/>
  <unicode hex="0166"/>
  <outline>
    <contour>
      <point x="688" y="407" type="line"/>
      <point x="688" y="467" type="line"/>
      <point x="135" y="467" type="line"/>
      <point x="135" y="407" type="line"/>
    </contour>
    <component base="T"/>
  </outline>
</glyph>
<glyph name="Aringacute" format="1">
  <advance width="789"/>
  <unicode hex="01FA"/>
  <outline>
    <contour>
      <point x="548" y="171" type="line" smooth="yes"/>
      <point x="570" y="122"/>
      <point x="574" y="106"/>
      <point x="574" y="86" type="curve" smooth="yes"/>
      <point x="574" y="50"/>
      <point x="544" y="39"/>
      <point x="474" y="39" type="curve"/>
      <point x="474" y="0" type="line"/>
      <point x="817" y="0" type="line"/>
      <point x="817" y="39" type="line"/>
      <point x="759" y="39"/>
      <point x="722" y="64"/>
      <point x="687" y="140" type="curve" smooth="yes"/>
      <point x="419" y="720" type="line"/>
      <point x="374" y="720" type="line"/>
      <point x="101" y="119" type="line" smooth="yes"/>
      <point x="75" y="63"/>
      <point x="50" y="45"/>
      <point x="-14" y="38" type="curve"/>
      <point x="-14" y="0" type="line"/>
      <point x="241" y="0" type="line"/>
      <point x="241" y="38" type="line"/>
      <point x="185" y="38"/>
      <point x="159" y="50"/>
      <point x="159" y="87" type="curve" smooth="yes"/>
      <point x="159" y="114"/>
      <point x="182" y="185"/>
      <point x="226" y="279" type="curve"/>
      <point x="500" y="279" type="line"/>
    </contour>
    <contour>
      <point x="368" y="574" type="line"/>
      <point x="477" y="329" type="line"/>
      <point x="250" y="329" type="line"/>
    </contour>
    <contour>
      <point x="326" y="878" type="curve" smooth="yes"/>
      <point x="326" y="870"/>
      <point x="326" y="863"/>
      <point x="328" y="857" type="curve"/>
      <point x="266" y="801" type="line"/>
      <point x="322" y="801" type="line"/>
      <point x="356" y="816" type="line"/>
      <point x="370" y="805"/>
      <point x="389" y="799"/>
      <point x="409" y="799" type="curve" smooth="yes"/>
      <point x="458" y="799"/>
      <point x="493" y="834"/>
      <point x="493" y="878" type="curve" smooth="yes"/>
      <point x="493" y="883"/>
      <point x="492" y="889"/>
      <point x="491" y="894" type="curve"/>
      <point x="519" y="909"/>
      <point x="536" y="926"/>
      <point x="536" y="944" type="curve" smooth="yes"/>
      <point x="536" y="960"/>
      <point x="524" y="970"/>
      <point x="506" y="970" type="curve" smooth="yes"/>
      <point x="489" y="970"/>
      <point x="474" y="964"/>
      <point x="457" y="947" type="curve"/>
      <point x="443" y="955"/>
      <point x="427" y="960"/>
      <point x="409" y="960" type="curve" smooth="yes"/>
      <point x="362" y="960"/>
      <point x="326" y="926"/>
    </contour>
    <contour>
      <point x="365" y="878" type="curve" smooth="yes"/>
      <point x="365" y="903"/>
      <point x="383" y="920"/>
      <point x="409" y="920" type="curve" smooth="yes"/>
      <point x="436" y="920"/>
      <point x="454" y="903"/>
      <point x="454" y="878" type="curve" smooth="yes"/>
      <point x="454" y="854"/>
      <point x="436" y="837"/>
      <point x="409" y="837" type="curve" smooth="yes"/>
      <point x="383" y="837"/>
      <point x="365" y="854"/>
    </contour>
  </outline>
</glyph>
<glyph name="aringacute" format="1">
  <advance width="574"/>
  <unicode hex="01FB"/>
  <outline>
    <contour>
      <point x="155" y="738" type="curve" smooth="yes"/>
      <point x="155" y="731"/>
      <point x="155" y="724"/>
      <point x="157" y="717" type="curve"/>
      <point x="90" y="661" type="line"/>
      <point x="156" y="661" type="line"/>
      <point x="186" y="676" type="line"/>
      <point x="200" y="665"/>
      <point x="218" y="659"/>
      <point x="238" y="659" type="curve" smooth="yes"/>
      <point x="287" y="659"/>
      <point x="322" y="694"/>
      <point x="322" y="738" type="curve" smooth="yes"/>
      <point x="322" y="743"/>
      <point x="322" y="748"/>
      <point x="321" y="753" type="curve"/>
      <point x="354" y="768"/>
      <point x="375" y="785"/>
      <point x="375" y="804" type="curve" smooth="yes"/>
      <point x="375" y="826"/>
      <point x="359" y="840"/>
      <point x="335" y="840" type="curve" smooth="yes"/>
      <point x="317" y="840"/>
      <point x="302" y="832"/>
      <point x="283" y="808" type="curve"/>
      <point x="270" y="816"/>
      <point x="255" y="820"/>
      <point x="238" y="820" type="curve" smooth="yes"/>
      <point x="191" y="820"/>
      <point x="155" y="786"/>
    </contour>
    <contour>
      <point x="202" y="738" type="curve" smooth="yes"/>
      <point x="202" y="758"/>
      <point x="217" y="772"/>
      <point x="238" y="772" type="curve" smooth="yes"/>
      <point x="260" y="772"/>
      <point x="274" y="758"/>
      <point x="274" y="738" type="curve" smooth="yes"/>
      <point x="274" y="719"/>
      <point x="260" y="705"/>
      <point x="238" y="705" type="curve" smooth="yes"/>
      <point x="217" y="705"/>
      <point x="202" y="719"/>
    </contour>
    <component base="a"/>
  </outline>
</glyph>
<glyph name="Oslashacute" format="1">
  <advance width="943"/>
  <unicode hex="01FE"/>
  <outline>
    <contour>
      <point x="891" y="830" type="line"/>
      <point x="802" y="830" type="line"/>
      <point x="47" y="-81" type="line"/>
      <point x="135" y="-81" type="line"/>
    </contour>
    <component base="acute.cap" xOffset="363"/>
    <component base="O"/>
  </outline>
</glyph>
<glyph name="oslashacute" format="1">
  <advance width="658"/>
  <unicode hex="01FF"/>
  <outline>
    <contour>
      <point x="646" y="592" type="line"/>
      <point x="564" y="592" type="line"/>
      <point x="22" y="-61" type="line"/>
      <point x="103" y="-61" type="line"/>
    </contour>
    <component base="acute" xOffset="250"/>
    <component base="o" xOffset="-1"/>
  </outline>
</glyph>
<glyph name="dotlessj" format="1">
  <advance width="331"/>
  <unicode hex="0237"/>
  <outline>
    <contour>
      <point x="172" y="651" type="move" name="top"/>
    </contour>
    <contour>
      <point x="246" y="540" type="line"/>
      <point x="14" y="502" type="line"/>
      <point x="14" y="468" type="line"/>
      <point x="76" y="468"/>
      <point x="92" y="459"/>
      <point x="99" y="428" type="curve" smooth="yes"/>
      <point x="103" y="411"/>
      <point x="107" y="363"/>
      <point x="107" y="290" type="curve" smooth="yes"/>
      <point x="107" y="-78" type="line" smooth="yes"/>
      <point x="107" y="-172"/>
      <point x="82" y="-207"/>
      <point x="33" y="-207" type="curve" smooth="yes"/>
      <point x="-39" y="-207"/>
      <point x="-24" y="-109"/>
      <point x="-99" y="-109" type="curve" smooth="yes"/>
      <point x="-127" y="-109"/>
      <point x="-153" y="-128"/>
      <point x="-153" y="-161" type="curve" smooth="yes"/>
      <point x="-153" y="-217"/>
      <point x="-91" y="-260"/>
      <point x="11" y="-260" type="curve" smooth="yes"/>
      <point x="162" y="-260"/>
      <point x="246" y="-168"/>
      <point x="246" y="-2" type="curve" smooth="yes"/>
    </contour>
  </outline>
</glyph>
<glyph name="schwa" format="1">
  <advance width="586"/>
  <unicode hex="0259"/>
  <outline>
    <contour>
      <point x="74" y="402" type="line"/>
      <point x="126" y="449"/>
      <point x="182" y="475"/>
      <point x="238" y="475" type="curve" smooth="yes"/>
      <point x="335" y="475"/>
      <point x="396" y="401"/>
      <point x="396" y="283" type="curve" smooth="yes"/>
      <point x="396" y="267"/>
      <point x="395" y="257"/>
      <point x="392" y="250" type="curve"/>
      <point x="70" y="250" type="line" smooth="yes"/>
      <point x="39" y="250"/>
      <point x="37" y="248"/>
      <point x="37" y="227" type="curve" smooth="yes"/>
      <point x="37" y="79"/>
      <point x="120" y="-10"/>
      <point x="261" y="-10" type="curve" smooth="yes"/>
      <point x="429" y="-10"/>
      <point x="548" y="107"/>
      <point x="548" y="272" type="curve" smooth="yes"/>
      <point x="548" y="431"/>
      <point x="437" y="540"/>
      <point x="273" y="540" type="curve" smooth="yes"/>
      <point x="182" y="540"/>
      <point x="108" y="507"/>
      <point x="46" y="437" type="curve"/>
    </contour>
    <contour>
      <point x="385" y="194" type="line"/>
      <point x="382" y="109"/>
      <point x="332" y="48"/>
      <point x="265" y="48" type="curve" smooth="yes"/>
      <point x="209" y="48"/>
      <point x="177" y="98"/>
      <point x="177" y="168" type="curve" smooth="yes"/>
      <point x="177" y="191"/>
      <point x="186" y="194"/>
      <point x="240" y="194" type="curve" smooth="yes"/>
    </contour>
  </outline>
</glyph>
<glyph name="apostrophe" format="1">
  <advance width="204"/>
  <unicode hex="02BC"/>
  <outline>
    <contour>
      <point x="123" y="596" type="line"/>
      <point x="127" y="622"/>
      <point x="134" y="654"/>
      <point x="141" y="683" type="curve" smooth="yes"/>
      <point x="150" y="719"/>
      <point x="158" y="751"/>
      <point x="158" y="770" type="curve" smooth="yes"/>
      <point x="158" y="805"/>
      <point x="134" y="830"/>
      <point x="102" y="830" type="curve" smooth="yes"/>
      <point x="70" y="830"/>
      <point x="46" y="805"/>
      <point x="46" y="771" type="curve" smooth="yes"/>
      <point x="46" y="752"/>
      <point x="54" y="719"/>
      <point x="63" y="683" type="curve" smooth="yes"/>
      <point x="70" y="653"/>
      <point x="78" y="622"/>
      <point x="82" y="596" type="curve"/>
    </contour>
  </outline>
</glyph>
<glyph name="breve" format="1">
  <advance width="332"/>
  <unicode hex="02D8"/>
  <outline>
    <contour>
      <point x="166" y="651" type="move" name="_top"/>
    </contour>
    <contour>
      <point x="272" y="786" type="line"/>
      <point x="260" y="755"/>
      <point x="217" y="735"/>
      <point x="165" y="735" type="curve" smooth="yes"/>
      <point x="113" y="735"/>
      <point x="71" y="755"/>
      <point x="59" y="786" type="curve"/>
      <point x="16" y="786" type="line"/>
      <point x="19" y="705"/>
      <point x="82" y="646"/>
      <point x="166" y="646" type="curve" smooth="yes"/>
      <point x="248" y="646"/>
      <point x="311" y="704"/>
      <point x="316" y="786" type="curve"/>
    </contour>
  </outline>
</glyph>
<glyph name="dotaccent" format="1">
  <advance width="195"/>
  <unicode hex="02D9"/>
  <outline>
    <contour>
      <point x="97" y="651" type="move" name="_top"/>
    </contour>
    <contour>
      <point x="20" y="752" type="curve" smooth="yes"/>
      <point x="20" y="709"/>
      <point x="54" y="675"/>
      <point x="97" y="675" type="curve" smooth="yes"/>
      <point x="141" y="675"/>
      <point x="175" y="709"/>
      <point x="175" y="752" type="curve" smooth="yes"/>
      <point x="175" y="796"/>
      <point x="141" y="830"/>
      <point x="97" y="830" type="curve" smooth="yes"/>
      <point x="54" y="830"/>
      <point x="20" y="796"/>
    </contour>
  </outline>
</glyph>
<glyph name="ring" format="1">
  <advance width="224"/>
  <unicode hex="02DA"/>
  <outline>
    <contour>
      <point x="111" y="651" type="move" name="_top"/>
    </contour>
    <contour>
      <point x="21" y="742" type="curve" smooth="yes"/>
      <point x="21" y="693"/>
      <point x="59" y="656"/>
      <point x="111" y="656" type="curve" smooth="yes"/>
      <point x="164" y="656"/>
      <point x="203" y="693"/>
      <point x="203" y="742" type="curve" smooth="yes"/>
      <point x="203" y="793"/>
      <point x="164" y="830"/>
      <point x="111" y="830" type="curve" smooth="yes"/>
      <point x="59" y="830"/>
      <point x="21" y="793"/>
    </contour>
    <contour>
      <point x="70" y="742" type="curve" smooth="yes"/>
      <point x="70" y="763"/>
      <point x="88" y="779"/>
      <point x="111" y="779" type="curve" smooth="yes"/>
      <point x="133" y="779"/>
      <point x="150" y="763"/>
      <point x="150" y="742" type="curve" smooth="yes"/>
      <point x="150" y="720"/>
      <point x="133" y="703"/>
      <point x="111" y="703" type="curve" smooth="yes"/>
      <point x="88" y="703"/>
      <point x="70" y="720"/>
    </contour>
  </outline>
</glyph>
<glyph name="tilde" format="1">
  <advance width="401"/>
  <unicode hex="02DC"/>
  <outline>
    <contour>
      <point x="202" y="651" type="move" name="_top"/>
    </contour>
    <contour>
      <point x="57" y="660" type="line"/>
      <point x="67" y="690"/>
      <point x="78" y="700"/>
      <point x="101" y="700" type="curve" smooth="yes"/>
      <point x="123" y="700"/>
      <point x="158" y="691"/>
      <point x="188" y="677" type="curve" smooth="yes"/>
      <point x="226" y="659"/>
      <point x="249" y="652"/>
      <point x="273" y="652" type="curve" smooth="yes"/>
      <point x="303" y="652"/>
      <point x="325" y="663"/>
      <point x="346" y="688" type="curve" smooth="yes"/>
      <point x="367" y="714"/>
      <point x="385" y="755"/>
      <point x="390" y="790" type="curve"/>
      <point x="345" y="790" type="line"/>
      <point x="335" y="759"/>
      <point x="321" y="748"/>
      <point x="296" y="748" type="curve" smooth="yes"/>
      <point x="278" y="748"/>
      <point x="258" y="754"/>
      <point x="217" y="770" type="curve" smooth="yes"/>
      <point x="167" y="789"/>
      <point x="149" y="794"/>
      <point x="130" y="794" type="curve" smooth="yes"/>
      <point x="73" y="794"/>
      <point x="24" y="738"/>
      <point x="11" y="660" type="curve"/>
    </contour>
  </outline>
</glyph>
<glyph name="hungarumlaut" format="1">
  <advance width="536"/>
  <unicode hex="02DD"/>
  <outline>
    <contour>
      <point x="239" y="651" type="move" name="_top"/>
    </contour>
    <contour>
      <point x="75" y="651" type="line"/>
      <point x="214" y="711" type="line" smooth="yes"/>
      <point x="256" y="729"/>
      <point x="283" y="745"/>
      <point x="283" y="768" type="curve" smooth="yes"/>
      <point x="283" y="796"/>
      <point x="261" y="813"/>
      <point x="228" y="813" type="curve" smooth="yes"/>
      <point x="201" y="813"/>
      <point x="175" y="800"/>
      <point x="143" y="770" type="curve" smooth="yes"/>
      <point x="16" y="651" type="line"/>
    </contour>
    <contour>
      <point x="312" y="651" type="line"/>
      <point x="451" y="711" type="line" smooth="yes"/>
      <point x="493" y="729"/>
      <point x="520" y="745"/>
      <point x="520" y="768" type="curve" smooth="yes"/>
      <point x="520" y="796"/>
      <point x="498" y="813"/>
      <point x="465" y="813" type="curve" smooth="yes"/>
      <point x="438" y="813"/>
      <point x="412" y="800"/>
      <point x="380" y="770" type="curve" smooth="yes"/>
      <point x="253" y="651" type="line"/>
    </contour>
  </outline>
</glyph>
<glyph name="quoteright" format="1">
  <advance width="242"/>
  <unicode hex="2019"/>
  <outline>
    <contour>
      <point x="84" y="540" type="line"/>
      <point x="164" y="600"/>
      <point x="206" y="668"/>
      <point x="206" y="736" type="curve" smooth="yes"/>
      <point x="206" y="793"/>
      <point x="177" y="830"/>
      <point x="131" y="830" type="curve" smooth="yes"/>
      <point x="87" y="830"/>
      <point x="54" y="797"/>
      <point x="54" y="753" type="curve" smooth="yes"/>
      <point x="54" y="717"/>
      <point x="77" y="689"/>
      <point x="108" y="689" type="curve" smooth="yes"/>
      <point x="115" y="689"/>
      <point x="125" y="690"/>
      <point x="130" y="692" type="curve"/>
      <point x="130" y="659"/>
      <point x="103" y="619"/>
      <point x="55" y="582" type="curve"/>
    </contour>
  </outline>
</glyph>
<glyph name="quotedblright" format="1">
  <advance width="448"/>
  <unicode hex="201D"/>
  <outline>
    <contour>
      <point x="84" y="540" type="line"/>
      <point x="164" y="600"/>
      <point x="206" y="668"/>
      <point x="206" y="736" type="curve" smooth="yes"/>
      <point x="206" y="793"/>
      <point x="177" y="830"/>
      <point x="131" y="830" type="curve" smooth="yes"/>
      <point x="87" y="830"/>
      <point x="54" y="797"/>
      <point x="54" y="753" type="curve" smooth="yes"/>
      <point x="54" y="717"/>
      <point x="77" y="689"/>
      <point x="108" y="689" type="curve" smooth="yes"/>
      <point x="115" y="689"/>
      <point x="125" y="690"/>
      <point x="130" y="692" type="curve"/>
      <point x="130" y="659"/>
      <point x="103" y="619"/>
      <point x="55" y="582" type="curve"/>
    </contour>
    <contour>
      <point x="290" y="540" type="line"/>
      <point x="370" y="600"/>
      <point x="412" y="668"/>
      <point x="412" y="736" type="curve" smooth="yes"/>
      <point x="412" y="793"/>
      <point x="383" y="830"/>
      <point x="337" y="830" type="curve" smooth="yes"/>
      <point x="293" y="830"/>
      <point x="260" y="797"/>
      <point x="260" y="753" type="curve" smooth="yes"/>
      <point x="260" y="717"/>
      <point x="283" y="689"/>
      <point x="314" y="689" type="curve" smooth="yes"/>
      <point x="321" y="689"/>
      <point x="331" y="690"/>
      <point x="336" y="692" type="curve"/>
      <point x="336" y="659"/>
      <point x="309" y="619"/>
      <point x="261" y="582" type="curve"/>
    </contour>
  </outline>
</glyph>
<glyph name="quotedblbase" format="1">
  <advance width="467"/>
  <unicode hex="201E"/>
  <outline>
    <contour>
      <point x="85" y="-184" type="line"/>
      <point x="165" y="-124"/>
      <point x="207" y="-56"/>
      <point x="207" y="12" type="curve" smooth="yes"/>
      <point x="207" y="69"/>
      <point x="178" y="106"/>
      <point x="132" y="106" type="curve" smooth="yes"/>
      <point x="88" y="106"/>
      <point x="55" y="73"/>
      <point x="55" y="29" type="curve" smooth="yes"/>
      <point x="55" y="-7"/>
      <point x="78" y="-35"/>
      <point x="109" y="-35" type="curve" smooth="yes"/>
      <point x="116" y="-35"/>
      <point x="126" y="-34"/>
      <point x="131" y="-32" type="curve"/>
      <point x="131" y="-65"/>
      <point x="104" y="-105"/>
      <point x="56" y="-142" type="curve"/>
    </contour>
    <contour>
      <point x="291" y="-184" type="line"/>
      <point x="371" y="-124"/>
      <point x="413" y="-56"/>
      <point x="413" y="12" type="curve" smooth="yes"/>
      <point x="413" y="69"/>
      <point x="384" y="106"/>
      <point x="338" y="106" type="curve" smooth="yes"/>
      <point x="294" y="106"/>
      <point x="261" y="73"/>
      <point x="261" y="29" type="curve" smooth="yes"/>
      <point x="261" y="-7"/>
      <point x="284" y="-35"/>
      <point x="315" y="-35" type="curve" smooth="yes"/>
      <point x="322" y="-35"/>
      <point x="332" y="-34"/>
      <point x="337" y="-32" type="curve"/>
      <point x="337" y="-65"/>
      <point x="310" y="-105"/>
      <point x="262" y="-142" type="curve"/>
    </contour>
  </outline>
</glyph>
<glyph name="bullet" format="1">
  <advance width="466"/>
  <unicode hex="2022"/>
  <outline>
    <contour>
      <point x="230" y="211" type="curve" smooth="yes"/>
      <point x="321" y="211"/>
      <point x="395" y="284"/>
      <point x="395" y="369" type="curve" smooth="yes"/>
      <point x="395" y="454"/>
      <point x="321" y="526"/>
      <point x="235" y="526" type="curve" smooth="yes"/>
      <point x="146" y="526"/>
      <point x="71" y="454"/>
      <point x="71" y="369" type="curve" smooth="yes"/>
      <point x="71" y="284"/>
      <point x="146" y="211"/>
    </contour>
  </outline>
</glyph>
<glyph name="ellipsis" format="1">
  <advance width="754"/>
  <unicode hex="2026"/>
  <outline>
    <contour>
      <point x="54" y="64" type="curve" smooth="yes"/>
      <point x="54" y="23"/>
      <point x="87" y="-10"/>
      <point x="129" y="-10" type="curve" smooth="yes"/>
      <point x="173" y="-10"/>
      <point x="206" y="23"/>
      <point x="206" y="64" type="curve" smooth="yes"/>
      <point x="206" y="107"/>
      <point x="173" y="141"/>
      <point x="129" y="141" type="curve" smooth="yes"/>
      <point x="87" y="141"/>
      <point x="54" y="107"/>
    </contour>
    <contour>
      <point x="301" y="64" type="curve" smooth="yes"/>
      <point x="301" y="23"/>
      <point x="334" y="-10"/>
      <point x="376" y="-10" type="curve" smooth="yes"/>
      <point x="420" y="-10"/>
      <point x="453" y="23"/>
      <point x="453" y="64" type="curve" smooth="yes"/>
      <point x="453" y="107"/>
      <point x="420" y="141"/>
      <point x="376" y="141" type="curve" smooth="yes"/>
      <point x="334" y="141"/>
      <point x="301" y="107"/>
    </contour>
    <contour>
      <point x="548" y="64" type="curve" smooth="yes"/>
      <point x="548" y="23"/>
      <point x="581" y="-10"/>
      <point x="623" y="-10" type="curve" smooth="yes"/>
      <point x="667" y="-10"/>
      <point x="700" y="23"/>
      <point x="700" y="64" type="curve" smooth="yes"/>
      <point x="700" y="107"/>
      <point x="667" y="141"/>
      <point x="623" y="141" type="curve" smooth="yes"/>
      <point x="581" y="141"/>
      <point x="548" y="107"/>
    </contour>
  </outline>
</glyph>
<glyph name="perthousand" format="1">
  <advance width="968"/>
  <unicode hex="2030"/>
  <outline>
    <contour>
      <point x="682" y="770" type="line"/>
      <point x="611" y="770" type="line"/>
      <point x="31" y="0" type="line"/>
      <point x="111" y="0" type="line"/>
    </contour>
    <component base="zerosuperior" xOffset="58"/>
    <component base="zeroinferior" xOffset="647"/>
    <component base="zeroinferior" xOffset="341"/>
  </outline>
</glyph>
<glyph name="guilsinglleft" format="1">
  <advance width="333"/>
  <unicode hex="2039"/>
  <outline>
    <contour>
      <point x="238" y="77" type="line"/>
      <point x="272" y="101" type="line"/>
      <point x="182" y="262" type="line"/>
      <point x="274" y="424" type="line"/>
      <point x="242" y="447" type="line"/>
      <point x="46" y="262" type="line"/>
    </contour>
  </outline>
</glyph>
<glyph name="guilsinglright" format="1">
  <advance width="333"/>
  <unicode hex="203A"/>
  <outline>
    <contour>
      <point x="287" y="262" type="line"/>
      <point x="91" y="447" type="line"/>
      <point x="59" y="424" type="line"/>
      <point x="151" y="262" type="line"/>
      <point x="61" y="101" type="line"/>
      <point x="95" y="77" type="line"/>
    </contour>
  </outline>
</glyph>
<glyph name="zerosuperior" format="1">
  <advance width="314"/>
  <unicode hex="2070"/>
  <outline>
    <contour>
      <point x="157" y="780" type="curve" smooth="yes"/>
      <point x="87" y="780"/>
      <point x="28" y="710"/>
      <point x="28" y="620" type="curve" smooth="yes"/>
      <point x="28" y="533"/>
      <point x="87" y="464"/>
      <point x="157" y="464" type="curve" smooth="yes"/>
      <point x="228" y="464"/>
      <point x="286" y="533"/>
      <point x="286" y="620" type="curve" smooth="yes"/>
      <point x="286" y="710"/>
      <point x="228" y="780"/>
    </contour>
    <contour>
      <point x="157" y="499" type="curve" smooth="yes"/>
      <point x="122" y="499"/>
      <point x="103" y="526"/>
      <point x="103" y="618" type="curve" smooth="yes"/>
      <point x="103" y="715"/>
      <point x="122" y="745"/>
      <point x="157" y="745" type="curve" smooth="yes"/>
      <point x="192" y="745"/>
      <point x="211" y="715"/>
      <point x="211" y="618" type="curve" smooth="yes"/>
      <point x="211" y="526"/>
      <point x="191" y="499"/>
    </contour>
  </outline>
</glyph>
<glyph name="fivesuperior" format="1">
  <advance width="265"/>
  <unicode hex="2075"/>
  <outline>
    <contour>
      <point x="113" y="727" type="line"/>
      <point x="148" y="727" type="line" smooth="yes"/>
      <point x="191" y="727"/>
      <point x="221" y="747"/>
      <point x="228" y="780" type="curve"/>
      <point x="224" y="780" type="line"/>
      <point x="210" y="776"/>
      <point x="184" y="773"/>
      <point x="154" y="773" type="curve" smooth="yes"/>
      <point x="129" y="773"/>
      <point x="111" y="776"/>
      <point x="101" y="780" type="curve"/>
      <point x="56" y="615" type="line" smooth="yes"/>
      <point x="55" y="613"/>
      <point x="55" y="611"/>
      <point x="55" y="609" type="curve" smooth="yes"/>
      <point x="55" y="602"/>
      <point x="60" y="599"/>
      <point x="68" y="599" type="curve" smooth="yes"/>
      <point x="76" y="599"/>
      <point x="80" y="603"/>
      <point x="85" y="615" type="curve" smooth="yes"/>
      <point x="94" y="634"/>
      <point x="111" y="645"/>
      <point x="132" y="645" type="curve" smooth="yes"/>
      <point x="152" y="645"/>
      <point x="164" y="625"/>
      <point x="164" y="593" type="curve" smooth="yes"/>
      <point x="164" y="530"/>
      <point x="142" y="497"/>
      <point x="100" y="497" type="curve" smooth="yes"/>
      <point x="46" y="497"/>
      <point x="75" y="552"/>
      <point x="35" y="552" type="curve" smooth="yes"/>
      <point x="20" y="552"/>
      <point x="12" y="544"/>
      <point x="12" y="528" type="curve" smooth="yes"/>
      <point x="12" y="491"/>
      <point x="50" y="464"/>
      <point x="102" y="464" type="curve" smooth="yes"/>
      <point x="177" y="464"/>
      <point x="237" y="515"/>
      <point x="237" y="579" type="curve" smooth="yes"/>
      <point x="237" y="633"/>
      <point x="194" y="677"/>
      <point x="142" y="677" type="curve" smooth="yes"/>
      <point x="123" y="677"/>
      <point x="107" y="671"/>
      <point x="98" y="660" type="curve"/>
      <point x="97" y="664" type="line"/>
    </contour>
  </outline>
</glyph>
<glyph name="threeinferior" format="1">
  <advance width="284"/>
  <unicode hex="2083"/>
  <outline>
    <contour>
      <point x="180" y="82" type="curve" smooth="yes"/>
      <point x="180" y="119"/>
      <point x="164" y="142"/>
      <point x="137" y="142" type="curve"/>
      <point x="127" y="138"/>
      <point x="116" y="135"/>
      <point x="108" y="135" type="curve" smooth="yes"/>
      <point x="94" y="135"/>
      <point x="85" y="144"/>
      <point x="85" y="156" type="curve" smooth="yes"/>
      <point x="85" y="168"/>
      <point x="94" y="175"/>
      <point x="107" y="175" type="curve" smooth="yes"/>
      <point x="115" y="175"/>
      <point x="124" y="173"/>
      <point x="134" y="170" type="curve"/>
      <point x="157" y="170"/>
      <point x="173" y="196"/>
      <point x="173" y="231" type="curve" smooth="yes"/>
      <point x="173" y="260"/>
      <point x="161" y="274"/>
      <point x="135" y="274" type="curve" smooth="yes"/>
      <point x="111" y="274"/>
      <point x="97" y="263"/>
      <point x="97" y="245" type="curve" smooth="yes"/>
      <point x="97" y="231"/>
      <point x="106" y="222"/>
      <point x="121" y="222" type="curve"/>
      <point x="119" y="211"/>
      <point x="103" y="202"/>
      <point x="86" y="202" type="curve" smooth="yes"/>
      <point x="60" y="202"/>
      <point x="39" y="223"/>
      <point x="39" y="249" type="curve" smooth="yes"/>
      <point x="39" y="284"/>
      <point x="76" y="306"/>
      <point x="135" y="306" type="curve" smooth="yes"/>
      <point x="201" y="306"/>
      <point x="244" y="278"/>
      <point x="244" y="234" type="curve" smooth="yes"/>
      <point x="244" y="200"/>
      <point x="217" y="170"/>
      <point x="180" y="162" type="curve"/>
      <point x="180" y="158" type="line"/>
      <point x="225" y="147"/>
      <point x="254" y="115"/>
      <point x="254" y="77" type="curve" smooth="yes"/>
      <point x="254" y="27"/>
      <point x="203" y="-10"/>
      <point x="134" y="-10" type="curve" smooth="yes"/>
      <point x="72" y="-10"/>
      <point x="27" y="20"/>
      <point x="27" y="61" type="curve" smooth="yes"/>
      <point x="27" y="90"/>
      <point x="50" y="112"/>
      <point x="79" y="112" type="curve" smooth="yes"/>
      <point x="98" y="112"/>
      <point x="114" y="103"/>
      <point x="118" y="89" type="curve"/>
      <point x="103" y="89"/>
      <point x="91" y="74"/>
      <point x="91" y="57" type="curve" smooth="yes"/>
      <point x="91" y="37"/>
      <point x="107" y="24"/>
      <point x="132" y="24" type="curve" smooth="yes"/>
      <point x="164" y="24"/>
      <point x="180" y="44"/>
    </contour>
  </outline>
</glyph>
<glyph name="sixinferior" format="1">
  <advance width="297"/>
  <unicode hex="2086"/>
  <outline>
    <contour>
      <point x="270" y="100" type="curve" smooth="yes"/>
      <point x="270" y="157"/>
      <point x="226" y="202"/>
      <point x="170" y="202" type="curve" smooth="yes"/>
      <point x="142" y="202"/>
      <point x="116" y="191"/>
      <point x="99" y="166" type="curve"/>
      <point x="95" y="167" type="line"/>
      <point x="95" y="230"/>
      <point x="126" y="273"/>
      <point x="160" y="273" type="curve" smooth="yes"/>
      <point x="195" y="273"/>
      <point x="191" y="234"/>
      <point x="221" y="234" type="curve" smooth="yes"/>
      <point x="236" y="234"/>
      <point x="246" y="244"/>
      <point x="246" y="259" type="curve" smooth="yes"/>
      <point x="246" y="285"/>
      <point x="212" y="306"/>
      <point x="170" y="306" type="curve" smooth="yes"/>
      <point x="92" y="306"/>
      <point x="29" y="228"/>
      <point x="29" y="131" type="curve" smooth="yes"/>
      <point x="29" y="47"/>
      <point x="78" y="-10"/>
      <point x="150" y="-10" type="curve" smooth="yes"/>
      <point x="217" y="-10"/>
      <point x="270" y="38"/>
    </contour>
    <contour>
      <point x="102" y="122" type="line"/>
      <point x="119" y="154"/>
      <point x="135" y="168"/>
      <point x="156" y="168" type="curve" smooth="yes"/>
      <point x="184" y="168"/>
      <point x="198" y="143"/>
      <point x="198" y="93" type="curve" smooth="yes"/>
      <point x="198" y="41"/>
      <point x="182" y="13"/>
      <point x="151" y="13" type="curve" smooth="yes"/>
      <point x="118" y="13"/>
      <point x="102" y="43"/>
      <point x="102" y="102" type="curve" smooth="yes"/>
    </contour>
  </outline>
</glyph>
<glyph name="trademark" format="1">
  <advance width="906"/>
  <unicode hex="2122"/>
  <outline>
    <contour>
      <point x="378" y="770" type="line"/>
      <point x="61" y="770" type="line"/>
      <point x="61" y="689" type="line"/>
      <point x="82" y="689" type="line"/>
      <point x="84" y="740"/>
      <point x="111" y="743"/>
      <point x="147" y="743" type="curve" smooth="yes"/>
      <point x="182" y="743"/>
      <point x="189" y="740"/>
      <point x="189" y="730" type="curve" smooth="yes"/>
      <point x="189" y="536" type="line" smooth="yes"/>
      <point x="189" y="502"/>
      <point x="182" y="489"/>
      <point x="139" y="487" type="curve"/>
      <point x="139" y="462" type="line"/>
      <point x="302" y="462" type="line"/>
      <point x="302" y="487" type="line"/>
      <point x="259" y="489"/>
      <point x="253" y="501"/>
      <point x="253" y="536" type="curve" smooth="yes"/>
      <point x="253" y="730" type="line" smooth="yes"/>
      <point x="253" y="740"/>
      <point x="259" y="743"/>
      <point x="300" y="743" type="curve" smooth="yes"/>
      <point x="343" y="743"/>
      <point x="352" y="731"/>
      <point x="356" y="689" type="curve"/>
      <point x="378" y="689" type="line"/>
    </contour>
    <contour>
      <point x="715" y="770" type="line"/>
      <point x="836" y="770" type="line"/>
      <point x="836" y="745" type="line"/>
      <point x="800" y="745"/>
      <point x="794" y="733"/>
      <point x="794" y="684" type="curve" smooth="yes"/>
      <point x="794" y="548" type="line" smooth="yes"/>
      <point x="794" y="495"/>
      <point x="800" y="488"/>
      <point x="840" y="487" type="curve"/>
      <point x="840" y="462" type="line"/>
      <point x="685" y="462" type="line"/>
      <point x="685" y="487" type="line"/>
      <point x="725" y="488"/>
      <point x="731" y="495"/>
      <point x="731" y="545" type="curve" smooth="yes"/>
      <point x="731" y="720" type="line"/>
      <point x="727" y="720" type="line"/>
      <point x="611" y="458" type="line"/>
      <point x="598" y="458" type="line"/>
      <point x="489" y="720" type="line"/>
      <point x="485" y="720" type="line"/>
      <point x="485" y="548" type="line" smooth="yes"/>
      <point x="485" y="495"/>
      <point x="491" y="488"/>
      <point x="531" y="487" type="curve"/>
      <point x="531" y="462" type="line"/>
      <point x="403" y="462" type="line"/>
      <point x="403" y="487" type="line"/>
      <point x="443" y="488"/>
      <point x="449" y="495"/>
      <point x="449" y="545" type="curve" smooth="yes"/>
      <point x="449" y="687" type="line" smooth="yes"/>
      <point x="449" y="732"/>
      <point x="440" y="745"/>
      <point x="407" y="745" type="curve"/>
      <point x="407" y="770" type="line"/>
      <point x="539" y="770" type="line"/>
      <point x="624" y="559" type="line"/>
    </contour>
  </outline>
</glyph>
<glyph name="onethird" format="1">
  <advance width="715"/>
  <unicode hex="2153"/>
  <outline>
    <contour>
      <point x="679" y="770" type="line"/>
      <point x="608" y="770" type="line"/>
      <point x="28" y="0" type="line"/>
      <point x="108" y="0" type="line"/>
    </contour>
    <component base="onesuperior" xOffset="85"/>
    <component base="threeinferior" xOffset="364"/>
  </outline>
</glyph>
<glyph name="twothirds" format="1">
  <advance width="717"/>
  <unicode hex="2154"/>
  <outline>
    <contour>
      <point x="687" y="770" type="line"/>
      <point x="616" y="770" type="line"/>
      <point x="36" y="0" type="line"/>
      <point x="116" y="0" type="line"/>
    </contour>
    <component base="threeinferior" xOffset="372"/>
    <component base="twosuperior" xOffset="61"/>
  </outline>
</glyph>
<glyph name="oneeighth" format="1">
  <advance width="715"/>
  <unicode hex="215B"/>
  <outline>
    <contour>
      <point x="679" y="770" type="line"/>
      <point x="608" y="770" type="line"/>
      <point x="28" y="0" type="line"/>
      <point x="108" y="0" type="line"/>
    </contour>
    <component base="onesuperior" xOffset="85"/>
    <component base="eightinferior" xOffset="364"/>
  </outline>
</glyph>
<glyph name="threeeighths" format="1">
  <advance width="716"/>
  <unicode hex="215C"/>
  <outline>
    <contour>
      <point x="686" y="770" type="line"/>
      <point x="615" y="770" type="line"/>
      <point x="35" y="0" type="line"/>
      <point x="115" y="0" type="line"/>
    </contour>
    <component base="eightinferior" xOffset="371"/>
    <component base="threesuperior" xOffset="57"/>
  </outline>
</glyph>
<glyph name="minus" format="1">
  <advance width="634"/>
  <unicode hex="2212"/>
  <outline>
    <contour>
      <point x="563" y="370" type="line"/>
      <point x="71" y="370" type="line"/>
      <point x="71" y="306" type="line"/>
      <point x="563" y="306" type="line"/>
    </contour>
  </outline>
</glyph>
<glyph name="uni2215" format="1">
  <advance width="582"/>
  <unicode hex="2215"/>
  <outline>
    <contour>
      <point x="617" y="770" type="line"/>
      <point x="546" y="770" type="line"/>
      <point x="-34" y="0" type="line"/>
      <point x="46" y="0" type="line"/>
    </contour>
  </outline>
</glyph>
<glyph name="commaaccent" format="1">
  <advance width="170"/>
  <unicode hex="F6C3"/>
  <outline>
    <contour>
      <point x="83" y="-10" type="move" name="_bottom"/>
    </contour>
    <contour>
      <point x="54" y="-260" type="line"/>
      <point x="123" y="-221"/>
      <point x="149" y="-179"/>
      <point x="149" y="-134" type="curve" smooth="yes"/>
      <point x="149" y="-84"/>
      <point x="125" y="-55"/>
      <point x="83" y="-55" type="curve" smooth="yes"/>
      <point x="40" y="-55"/>
      <point x="11" y="-84"/>
      <point x="11" y="-115" type="curve" smooth="yes"/>
      <point x="11" y="-145"/>
      <point x="32" y="-165"/>
      <point x="57" y="-165" type="curve" smooth="yes"/>
      <point x="69" y="-165"/>
      <point x="78" y="-162"/>
      <point x="84" y="-157" type="curve"/>
      <point x="84" y="-182"/>
      <point x="66" y="-207"/>
      <point x="26" y="-229" type="curve"/>
    </contour>
  </outline>
</glyph>
<glyph name="f_f" format="1">
  <advance width="772"/>
  <unicode hex="FB00"/>
  <outline>
    <contour>
      <point x="265" y="457" type="line"/>
      <point x="462" y="457" type="line"/>
      <point x="462" y="158" type="line" smooth="yes"/>
      <point x="462" y="59"/>
      <point x="454" y="43"/>
      <point x="401" y="40" type="curve"/>
      <point x="401" y="0" type="line"/>
      <point x="700" y="0" type="line"/>
      <point x="700" y="40" type="line"/>
      <point x="620" y="42"/>
      <point x="601" y="66"/>
      <point x="601" y="166" type="curve" smooth="yes"/>
      <point x="601" y="457" type="line"/>
      <point x="758" y="457" type="line"/>
      <point x="758" y="514" type="line"/>
      <point x="601" y="514" type="line"/>
      <point x="601" y="592" type="line" smooth="yes"/>
      <point x="601" y="730"/>
      <point x="641" y="772"/>
      <point x="698" y="772" type="curve" smooth="yes"/>
      <point x="718" y="772"/>
      <point x="730" y="763"/>
      <point x="757" y="728" type="curve" smooth="yes"/>
      <point x="777" y="702"/>
      <point x="800" y="688"/>
      <point x="832" y="688" type="curve" smooth="yes"/>
      <point x="859" y="688"/>
      <point x="882" y="705"/>
      <point x="882" y="741" type="curve" smooth="yes"/>
      <point x="882" y="795"/>
      <point x="823" y="830"/>
      <point x="732" y="830" type="curve" smooth="yes"/>
      <point x="641" y="830"/>
      <point x="547" y="801"/>
      <point x="498" y="757" type="curve"/>
      <point x="463" y="781"/>
      <point x="431" y="790"/>
      <point x="381" y="790" type="curve" smooth="yes"/>
      <point x="225" y="790"/>
      <point x="126" y="696"/>
      <point x="126" y="546" type="curve" smooth="yes"/>
      <point x="126" y="514" type="line"/>
      <point x="19" y="514" type="line"/>
      <point x="19" y="457" type="line"/>
      <point x="126" y="457" type="line"/>
      <point x="126" y="158" type="line" smooth="yes"/>
      <point x="126" y="57"/>
      <point x="116" y="44"/>
      <point x="37" y="40" type="curve"/>
      <point x="37" y="0" type="line"/>
      <point x="340" y="0" type="line"/>
      <point x="340" y="40" type="line"/>
      <point x="280" y="42"/>
      <point x="265" y="67"/>
      <point x="265" y="166" type="curve" smooth="yes"/>
    </contour>
    <contour>
      <point x="265" y="514" type="line"/>
      <point x="265" y="552" type="line" smooth="yes"/>
      <point x="265" y="666"/>
      <point x="286" y="732"/>
      <point x="349" y="732" type="curve" smooth="yes"/>
      <point x="387" y="732"/>
      <point x="418" y="718"/>
      <point x="462" y="660" type="curve"/>
      <point x="462" y="514" type="line"/>
    </contour>
  </outline>
</glyph>
<glyph name="acute.cap" format="1">
  <advance width="317"/>
  <outline>
    <contour>
      <point x="126" y="830" type="move" name="_topcap"/>
    </contour>
    <contour>
      <point x="93" y="830" type="line"/>
      <point x="209" y="858" type="line" smooth="yes"/>
      <point x="278" y="875"/>
      <point x="297" y="893"/>
      <point x="297" y="923" type="curve" smooth="yes"/>
      <point x="297" y="945"/>
      <point x="277" y="960"/>
      <point x="240" y="960" type="curve" smooth="yes"/>
      <point x="206" y="960"/>
      <point x="172" y="947"/>
      <point x="146" y="927" type="curve" smooth="yes"/>
      <point x="20" y="830" type="line"/>
    </contour>
  </outline>
</glyph>
<glyph name="breve.cap" format="1">
  <advance width="332"/>
  <outline>
    <contour>
      <point x="166" y="830" type="move" name="_topcap"/>
    </contour>
    <contour>
      <point x="272" y="960" type="line"/>
      <point x="260" y="935"/>
      <point x="217" y="919"/>
      <point x="165" y="919" type="curve" smooth="yes"/>
      <point x="113" y="919"/>
      <point x="71" y="935"/>
      <point x="59" y="960" type="curve"/>
      <point x="16" y="960" type="line"/>
      <point x="19" y="885"/>
      <point x="82" y="830"/>
      <point x="166" y="830" type="curve" smooth="yes"/>
      <point x="248" y="830"/>
      <point x="311" y="884"/>
      <point x="316" y="960" type="curve"/>
    </contour>
  </outline>
</glyph>
<glyph name="caron.alt" format="1">
  <advance width="170"/>
  <outline>
    <contour>
      <point x="83" y="651" type="move" name="_top"/>
    </contour>
    <contour>
      <point x="54" y="559" type="line"/>
      <point x="123" y="604"/>
      <point x="149" y="648"/>
      <point x="149" y="701" type="curve" smooth="yes"/>
      <point x="149" y="751"/>
      <point x="125" y="780"/>
      <point x="83" y="780" type="curve" smooth="yes"/>
      <point x="40" y="780"/>
      <point x="11" y="751"/>
      <point x="11" y="720" type="curve" smooth="yes"/>
      <point x="11" y="690"/>
      <point x="32" y="670"/>
      <point x="57" y="670" type="curve" smooth="yes"/>
      <point x="69" y="670"/>
      <point x="78" y="673"/>
      <point x="84" y="678" type="curve"/>
      <point x="84" y="645"/>
      <point x="66" y="618"/>
      <point x="26" y="590" type="curve"/>
    </contour>
  </outline>
</glyph>
<glyph name="circumflex.cap" format="1">
  <advance width="386"/>
  <outline>
    <contour>
      <point x="193" y="830" type="move" name="_topcap"/>
    </contour>
    <contour>
      <point x="135" y="960" type="line"/>
      <point x="11" y="830" type="line"/>
      <point x="78" y="830" type="line"/>
      <point x="193" y="879" type="line"/>
      <point x="308" y="830" type="line"/>
      <point x="375" y="830" type="line"/>
      <point x="251" y="960" type="line"/>
    </contour>
  </outline>
</glyph>
<glyph name="f_b" format="1">
  <advance width="1050"/>
  <outline>
    <contour>
      <point x="599" y="830" type="line"/>
      <point x="516" y="804" type="line"/>
      <point x="488" y="819"/>
      <point x="428" y="830"/>
      <point x="374" y="830" type="curve" smooth="yes"/>
      <point x="216" y="830"/>
      <point x="121" y="739"/>
      <point x="121" y="586" type="curve" smooth="yes"/>
      <point x="121" y="514" type="line"/>
      <point x="18" y="514" type="line"/>
      <point x="18" y="457" type="line"/>
      <point x="121" y="457" type="line"/>
      <point x="121" y="158" type="line" smooth="yes"/>
      <point x="121" y="58"/>
      <point x="112" y="44"/>
      <point x="47" y="40" type="curve"/>
      <point x="47" y="0" type="line"/>
      <point x="344" y="0" type="line"/>
      <point x="344" y="40" type="line"/>
      <point x="277" y="42"/>
      <point x="260" y="67"/>
      <point x="260" y="166" type="curve" smooth="yes"/>
      <point x="260" y="457" type="line"/>
      <point x="375" y="457" type="line"/>
      <point x="375" y="514" type="line"/>
      <point x="260" y="514" type="line"/>
      <point x="260" y="592" type="line" smooth="yes"/>
      <point x="260" y="711"/>
      <point x="291" y="772"/>
      <point x="352" y="772" type="curve" smooth="yes"/>
      <point x="386" y="772"/>
      <point x="428" y="752"/>
      <point x="461" y="718" type="curve"/>
      <point x="461" y="0" type="line"/>
      <point x="495" y="0" type="line"/>
      <point x="571" y="67" type="line"/>
      <point x="610" y="20"/>
      <point x="678" y="-11"/>
      <point x="753" y="-11" type="curve" smooth="yes"/>
      <point x="894" y="-11"/>
      <point x="1012" y="109"/>
      <point x="1012" y="265" type="curve" smooth="yes"/>
      <point x="1012" y="420"/>
      <point x="904" y="540"/>
      <point x="764" y="540" type="curve" smooth="yes"/>
      <point x="694" y="540"/>
      <point x="637" y="511"/>
      <point x="603" y="461" type="curve"/>
      <point x="599" y="461" type="line"/>
    </contour>
    <contour>
      <point x="601" y="282" type="line" smooth="yes"/>
      <point x="601" y="406"/>
      <point x="654" y="477"/>
      <point x="738" y="477" type="curve" smooth="yes"/>
      <point x="818" y="477"/>
      <point x="860" y="402"/>
      <point x="860" y="261" type="curve" smooth="yes"/>
      <point x="860" y="123"/>
      <point x="817" y="47"/>
      <point x="738" y="47" type="curve" smooth="yes"/>
      <point x="659" y="47"/>
      <point x="601" y="120"/>
      <point x="601" y="219" type="curve" smooth="yes"/>
    </contour>
  </outline>
</glyph>
<glyph name="f_f_b" format="1">
  <advance width="1391"/>
  <outline>
    <contour>
      <point x="940" y="830" type="line"/>
      <point x="878" y="801" type="line"/>
      <point x="845" y="819"/>
      <point x="794" y="830"/>
      <point x="732" y="830" type="curve" smooth="yes"/>
      <point x="641" y="830"/>
      <point x="547" y="801"/>
      <point x="498" y="757" type="curve"/>
      <point x="463" y="781"/>
      <point x="431" y="790"/>
      <point x="381" y="790" type="curve" smooth="yes"/>
      <point x="225" y="790"/>
      <point x="126" y="696"/>
      <point x="126" y="546" type="curve" smooth="yes"/>
      <point x="126" y="514" type="line"/>
      <point x="19" y="514" type="line"/>
      <point x="19" y="457" type="line"/>
      <point x="126" y="457" type="line"/>
      <point x="126" y="158" type="line" smooth="yes"/>
      <point x="126" y="57"/>
      <point x="116" y="44"/>
      <point x="37" y="40" type="curve"/>
      <point x="37" y="0" type="line"/>
      <point x="340" y="0" type="line"/>
      <point x="340" y="40" type="line"/>
      <point x="280" y="42"/>
      <point x="265" y="67"/>
      <point x="265" y="166" type="curve" smooth="yes"/>
      <point x="265" y="457" type="line"/>
      <point x="462" y="457" type="line"/>
      <point x="462" y="158" type="line" smooth="yes"/>
      <point x="462" y="59"/>
      <point x="453" y="43"/>
      <point x="391" y="40" type="curve"/>
      <point x="391" y="0" type="line"/>
      <point x="685" y="0" type="line"/>
      <point x="685" y="40" type="line"/>
      <point x="617" y="42"/>
      <point x="601" y="66"/>
      <point x="601" y="166" type="curve" smooth="yes"/>
      <point x="601" y="457" type="line"/>
      <point x="733" y="457" type="line"/>
      <point x="733" y="514" type="line"/>
      <point x="601" y="514" type="line"/>
      <point x="601" y="592" type="line" smooth="yes"/>
      <point x="601" y="730"/>
      <point x="641" y="772"/>
      <point x="698" y="772" type="curve" smooth="yes"/>
      <point x="730" y="772"/>
      <point x="769" y="758"/>
      <point x="802" y="725" type="curve"/>
      <point x="802" y="0" type="line"/>
      <point x="836" y="0" type="line"/>
      <point x="912" y="67" type="line"/>
      <point x="951" y="20"/>
      <point x="1019" y="-11"/>
      <point x="1094" y="-11" type="curve" smooth="yes"/>
      <point x="1235" y="-11"/>
      <point x="1353" y="109"/>
      <point x="1353" y="265" type="curve" smooth="yes"/>
      <point x="1353" y="420"/>
      <point x="1245" y="540"/>
      <point x="1105" y="540" type="curve" smooth="yes"/>
      <point x="1035" y="540"/>
      <point x="978" y="511"/>
      <point x="944" y="461" type="curve"/>
      <point x="940" y="461" type="line"/>
    </contour>
    <contour>
      <point x="942" y="282" type="line" smooth="yes"/>
      <point x="942" y="406"/>
      <point x="995" y="477"/>
      <point x="1079" y="477" type="curve" smooth="yes"/>
      <point x="1159" y="477"/>
      <point x="1201" y="402"/>
      <point x="1201" y="261" type="curve" smooth="yes"/>
      <point x="1201" y="123"/>
      <point x="1158" y="47"/>
      <point x="1079" y="47" type="curve" smooth="yes"/>
      <point x="1000" y="47"/>
      <point x="942" y="120"/>
      <point x="942" y="219" type="curve" smooth="yes"/>
    </contour>
    <contour>
      <point x="265" y="514" type="line"/>
      <point x="265" y="552" type="line" smooth="yes"/>
      <point x="265" y="666"/>
      <point x="286" y="732"/>
      <point x="349" y="732" type="curve" smooth="yes"/>
      <point x="387" y="732"/>
      <point x="418" y="718"/>
      <point x="462" y="660" type="curve"/>
      <point x="462" y="514" type="line"/>
    </contour>
  </outline>
</glyph>
<glyph name="f_f_h" format="1">
  <advance width="1412"/>
  <outline>
    <contour>
      <point x="942" y="297" type="line" smooth="yes"/>
      <point x="942" y="353"/>
      <point x="955" y="399"/>
      <point x="978" y="430" type="curve" smooth="yes"/>
      <point x="1001" y="459"/>
      <point x="1032" y="474"/>
      <point x="1073" y="474" type="curve" smooth="yes"/>
      <point x="1148" y="474"/>
      <point x="1175" y="422"/>
      <point x="1175" y="280" type="curve" smooth="yes"/>
      <point x="1175" y="157" type="line" smooth="yes"/>
      <point x="1175" y="56"/>
      <point x="1166" y="44"/>
      <point x="1086" y="40" type="curve"/>
      <point x="1086" y="0" type="line"/>
      <point x="1399" y="0" type="line"/>
      <point x="1399" y="40" type="line"/>
      <point x="1320" y="45"/>
      <point x="1314" y="53"/>
      <point x="1314" y="164" type="curve" smooth="yes"/>
      <point x="1314" y="319" type="line" smooth="yes"/>
      <point x="1314" y="380"/>
      <point x="1293" y="440"/>
      <point x="1258" y="480" type="curve" smooth="yes"/>
      <point x="1222" y="520"/>
      <point x="1171" y="540"/>
      <point x="1106" y="540" type="curve" smooth="yes"/>
      <point x="1035" y="540"/>
      <point x="985" y="515"/>
      <point x="944" y="461" type="curve"/>
      <point x="940" y="461" type="line"/>
      <point x="940" y="830" type="line"/>
      <point x="870" y="805" type="line"/>
      <point x="837" y="821"/>
      <point x="790" y="830"/>
      <point x="732" y="830" type="curve" smooth="yes"/>
      <point x="641" y="830"/>
      <point x="547" y="801"/>
      <point x="498" y="757" type="curve"/>
      <point x="463" y="781"/>
      <point x="431" y="790"/>
      <point x="381" y="790" type="curve" smooth="yes"/>
      <point x="225" y="790"/>
      <point x="126" y="696"/>
      <point x="126" y="546" type="curve" smooth="yes"/>
      <point x="126" y="514" type="line"/>
      <point x="19" y="514" type="line"/>
      <point x="19" y="457" type="line"/>
      <point x="126" y="457" type="line"/>
      <point x="126" y="158" type="line" smooth="yes"/>
      <point x="126" y="57"/>
      <point x="116" y="44"/>
      <point x="37" y="40" type="curve"/>
      <point x="37" y="0" type="line"/>
      <point x="340" y="0" type="line"/>
      <point x="340" y="40" type="line"/>
      <point x="280" y="42"/>
      <point x="265" y="67"/>
      <point x="265" y="166" type="curve" smooth="yes"/>
      <point x="265" y="457" type="line"/>
      <point x="462" y="457" type="line"/>
      <point x="462" y="158" type="line" smooth="yes"/>
      <point x="462" y="59"/>
      <point x="453" y="43"/>
      <point x="391" y="40" type="curve"/>
      <point x="391" y="0" type="line"/>
      <point x="685" y="0" type="line"/>
      <point x="685" y="40" type="line"/>
      <point x="617" y="42"/>
      <point x="601" y="66"/>
      <point x="601" y="166" type="curve" smooth="yes"/>
      <point x="601" y="457" type="line"/>
      <point x="733" y="457" type="line"/>
      <point x="733" y="514" type="line"/>
      <point x="601" y="514" type="line"/>
      <point x="601" y="592" type="line" smooth="yes"/>
      <point x="601" y="730"/>
      <point x="641" y="772"/>
      <point x="698" y="772" type="curve" smooth="yes"/>
      <point x="730" y="772"/>
      <point x="768" y="758"/>
      <point x="801" y="725" type="curve"/>
      <point x="801" y="724"/>
      <point x="802" y="723"/>
      <point x="803" y="723" type="curve"/>
      <point x="803" y="157" type="line" smooth="yes"/>
      <point x="803" y="56"/>
      <point x="797" y="45"/>
      <point x="734" y="40" type="curve"/>
      <point x="734" y="0" type="line"/>
      <point x="1029" y="0" type="line"/>
      <point x="1029" y="40" type="line"/>
      <point x="949" y="45"/>
      <point x="942" y="55"/>
      <point x="942" y="164" type="curve" smooth="yes"/>
    </contour>
    <contour>
      <point x="265" y="514" type="line"/>
      <point x="265" y="552" type="line" smooth="yes"/>
      <point x="265" y="666"/>
      <point x="286" y="732"/>
      <point x="349" y="732" type="curve" smooth="yes"/>
      <point x="387" y="732"/>
      <point x="418" y="718"/>
      <point x="462" y="660" type="curve"/>
      <point x="462" y="514" type="line"/>
    </contour>
  </outline>
</glyph>
<glyph name="f_h" format="1">
  <advance width="1071"/>
  <outline>
    <contour>
      <point x="601" y="297" type="line" smooth="yes"/>
      <point x="601" y="406"/>
      <point x="647" y="474"/>
      <point x="732" y="474" type="curve" smooth="yes"/>
      <point x="807" y="474"/>
      <point x="834" y="422"/>
      <point x="834" y="280" type="curve" smooth="yes"/>
      <point x="834" y="157" type="line" smooth="yes"/>
      <point x="834" y="56"/>
      <point x="825" y="44"/>
      <point x="745" y="40" type="curve"/>
      <point x="745" y="0" type="line"/>
      <point x="1058" y="0" type="line"/>
      <point x="1058" y="40" type="line"/>
      <point x="979" y="45"/>
      <point x="973" y="53"/>
      <point x="973" y="164" type="curve" smooth="yes"/>
      <point x="973" y="319" type="line" smooth="yes"/>
      <point x="973" y="445"/>
      <point x="898" y="540"/>
      <point x="765" y="540" type="curve" smooth="yes"/>
      <point x="694" y="540"/>
      <point x="644" y="515"/>
      <point x="603" y="461" type="curve"/>
      <point x="599" y="461" type="line"/>
      <point x="599" y="830" type="line"/>
      <point x="516" y="804" type="line"/>
      <point x="488" y="819"/>
      <point x="428" y="830"/>
      <point x="374" y="830" type="curve" smooth="yes"/>
      <point x="216" y="830"/>
      <point x="121" y="739"/>
      <point x="121" y="586" type="curve" smooth="yes"/>
      <point x="121" y="514" type="line"/>
      <point x="18" y="514" type="line"/>
      <point x="18" y="457" type="line"/>
      <point x="121" y="457" type="line"/>
      <point x="121" y="158" type="line" smooth="yes"/>
      <point x="121" y="58"/>
      <point x="112" y="44"/>
      <point x="47" y="40" type="curve"/>
      <point x="47" y="0" type="line"/>
      <point x="334" y="0" type="line"/>
      <point x="334" y="40" type="line"/>
      <point x="275" y="42"/>
      <point x="260" y="67"/>
      <point x="260" y="166" type="curve" smooth="yes"/>
      <point x="260" y="457" type="line"/>
      <point x="375" y="457" type="line"/>
      <point x="375" y="514" type="line"/>
      <point x="260" y="514" type="line"/>
      <point x="260" y="592" type="line" smooth="yes"/>
      <point x="260" y="711"/>
      <point x="291" y="772"/>
      <point x="352" y="772" type="curve" smooth="yes"/>
      <point x="386" y="772"/>
      <point x="429" y="752"/>
      <point x="462" y="718" type="curve"/>
      <point x="462" y="157" type="line" smooth="yes"/>
      <point x="462" y="56"/>
      <point x="456" y="45"/>
      <point x="393" y="40" type="curve"/>
      <point x="393" y="0" type="line"/>
      <point x="688" y="0" type="line"/>
      <point x="688" y="40" type="line"/>
      <point x="608" y="45"/>
      <point x="601" y="55"/>
      <point x="601" y="164" type="curve" smooth="yes"/>
    </contour>
  </outline>
</glyph>
<glyph name="f_j" format="1">
  <advance width="673"/>
  <outline>
    <contour>
      <point x="588" y="540" type="line"/>
      <point x="383" y="514" type="line"/>
      <point x="256" y="514" type="line"/>
      <point x="256" y="592" type="line" smooth="yes"/>
      <point x="256" y="651"/>
      <point x="262" y="691"/>
      <point x="276" y="721" type="curve" smooth="yes"/>
      <point x="291" y="755"/>
      <point x="316" y="772"/>
      <point x="353" y="772" type="curve" smooth="yes"/>
      <point x="387" y="772"/>
      <point x="413" y="759"/>
      <point x="452" y="721" type="curve" smooth="yes"/>
      <point x="475" y="699"/>
      <point x="498" y="688"/>
      <point x="521" y="688" type="curve" smooth="yes"/>
      <point x="550" y="688"/>
      <point x="570" y="708"/>
      <point x="570" y="737" type="curve" smooth="yes"/>
      <point x="570" y="792"/>
      <point x="497" y="830"/>
      <point x="392" y="830" type="curve" smooth="yes"/>
      <point x="219" y="830"/>
      <point x="117" y="741"/>
      <point x="117" y="586" type="curve" smooth="yes"/>
      <point x="117" y="514" type="line"/>
      <point x="18" y="514" type="line"/>
      <point x="18" y="457" type="line"/>
      <point x="117" y="457" type="line"/>
      <point x="117" y="156" type="line" smooth="yes"/>
      <point x="117" y="56"/>
      <point x="108" y="42"/>
      <point x="47" y="38" type="curve"/>
      <point x="47" y="0" type="line"/>
      <point x="333" y="0" type="line"/>
      <point x="333" y="38" type="line"/>
      <point x="272" y="40"/>
      <point x="256" y="65"/>
      <point x="256" y="164" type="curve" smooth="yes"/>
      <point x="256" y="457" type="line"/>
      <point x="354" y="457" type="line" smooth="yes"/>
      <point x="422" y="457"/>
      <point x="442" y="448"/>
      <point x="449" y="416" type="curve"/>
      <point x="449" y="-78" type="line" smooth="yes"/>
      <point x="449" y="-172"/>
      <point x="424" y="-207"/>
      <point x="375" y="-207" type="curve" smooth="yes"/>
      <point x="303" y="-207"/>
      <point x="318" y="-109"/>
      <point x="243" y="-109" type="curve" smooth="yes"/>
      <point x="215" y="-109"/>
      <point x="189" y="-128"/>
      <point x="189" y="-161" type="curve" smooth="yes"/>
      <point x="189" y="-217"/>
      <point x="251" y="-260"/>
      <point x="353" y="-260" type="curve" smooth="yes"/>
      <point x="504" y="-260"/>
      <point x="588" y="-168"/>
      <point x="588" y="-2" type="curve" smooth="yes"/>
    </contour>
  </outline>
</glyph>
<glyph name="f_k" format="1">
  <advance width="1021"/>
  <outline>
    <contour>
      <point x="715" y="0" type="line"/>
      <point x="1026" y="0" type="line"/>
      <point x="1026" y="40" type="line"/>
      <point x="977" y="40"/>
      <point x="953" y="53"/>
      <point x="923" y="96" type="curve" smooth="yes"/>
      <point x="750" y="341" type="line"/>
      <point x="847" y="432" type="line" smooth="yes"/>
      <point x="893" y="475"/>
      <point x="927" y="490"/>
      <point x="977" y="490" type="curve"/>
      <point x="977" y="530" type="line"/>
      <point x="704" y="530" type="line"/>
      <point x="704" y="490" type="line"/>
      <point x="768" y="490"/>
      <point x="787" y="485"/>
      <point x="787" y="469" type="curve" smooth="yes"/>
      <point x="787" y="455"/>
      <point x="769" y="435"/>
      <point x="695" y="365" type="curve" smooth="yes"/>
      <point x="599" y="274" type="line"/>
      <point x="599" y="830" type="line"/>
      <point x="516" y="804" type="line"/>
      <point x="488" y="819"/>
      <point x="428" y="830"/>
      <point x="374" y="830" type="curve" smooth="yes"/>
      <point x="216" y="830"/>
      <point x="121" y="739"/>
      <point x="121" y="586" type="curve" smooth="yes"/>
      <point x="121" y="514" type="line"/>
      <point x="18" y="514" type="line"/>
      <point x="18" y="457" type="line"/>
      <point x="121" y="457" type="line"/>
      <point x="121" y="158" type="line" smooth="yes"/>
      <point x="121" y="58"/>
      <point x="111" y="40"/>
      <point x="47" y="40" type="curve"/>
      <point x="47" y="0" type="line"/>
      <point x="334" y="0" type="line"/>
      <point x="334" y="40" type="line"/>
      <point x="275" y="40"/>
      <point x="260" y="67"/>
      <point x="260" y="166" type="curve" smooth="yes"/>
      <point x="260" y="457" type="line"/>
      <point x="375" y="457" type="line"/>
      <point x="375" y="514" type="line"/>
      <point x="260" y="514" type="line"/>
      <point x="260" y="592" type="line" smooth="yes"/>
      <point x="260" y="711"/>
      <point x="291" y="772"/>
      <point x="352" y="772" type="curve" smooth="yes"/>
      <point x="386" y="772"/>
      <point x="429" y="752"/>
      <point x="462" y="718" type="curve"/>
      <point x="462" y="157" type="line" smooth="yes"/>
      <point x="462" y="62"/>
      <point x="449" y="40"/>
      <point x="383" y="40" type="curve"/>
      <point x="383" y="0" type="line"/>
      <point x="668" y="0" type="line"/>
      <point x="668" y="40" type="line"/>
      <point x="611" y="40"/>
      <point x="599" y="61"/>
      <point x="599" y="164" type="curve" smooth="yes"/>
      <point x="599" y="203" type="line"/>
      <point x="649" y="251" type="line"/>
      <point x="735" y="116" type="line" smooth="yes"/>
      <point x="763" y="72"/>
      <point x="766" y="66"/>
      <point x="766" y="58" type="curve" smooth="yes"/>
      <point x="766" y="44"/>
      <point x="755" y="40"/>
      <point x="715" y="40" type="curve"/>
    </contour>
  </outline>
</glyph>
<glyph name="grave.cap" format="1">
  <advance width="317"/>
  <outline>
    <contour>
      <point x="177" y="830" type="move" name="_topcap"/>
    </contour>
    <contour>
      <point x="297" y="830" type="line"/>
      <point x="171" y="927" type="line" smooth="yes"/>
      <point x="145" y="947"/>
      <point x="111" y="960"/>
      <point x="77" y="960" type="curve" smooth="yes"/>
      <point x="40" y="960"/>
      <point x="20" y="945"/>
      <point x="20" y="923" type="curve" smooth="yes"/>
      <point x="20" y="893"/>
      <point x="39" y="875"/>
      <point x="108" y="858" type="curve" smooth="yes"/>
      <point x="224" y="830" type="line"/>
    </contour>
  </outline>
</glyph>
